<?xml version="1.0" encoding="UTF-8"?>
<svg width="20px" height="20px" viewBox="0 0 20 20" version="1.1" xmlns="http://www.w3.org/2000/svg" xmlns:xlink="http://www.w3.org/1999/xlink">
    <!-- Generator: sketchtool 52.5 (67469) - http://www.bohemiancoding.com/sketch -->
    <title>B6F1115C-D982-4857-BE6F-1322D342D8D6</title>
    <desc>Created with sketchtool.</desc>
    <g id="symbols" stroke="none" stroke-width="1" fill="none" fill-rule="evenodd">
        <g id="ICON/20/add" fill="#FFFFFF">
            <path d="M7,7 L7,4 C7,2.34314575 8.34314575,1 10,1 C11.6568542,1 13,2.34314575 13,4 L13,7 L16,7 C17.6568542,7 19,8.34314575 19,10 C19,11.6568542 17.6568542,13 16,13 L13,13 L13,16 C13,17.6568542 11.6568542,19 10,19 C8.34314575,19 7,17.6568542 7,16 L7,13 L4,13 C2.34314575,13 1,11.6568542 1,10 C1,8.34314575 2.34314575,7 4,7 L7,7 Z" id="Combined-Shape"></path>
        </g>
    </g>
</svg>