<?xml version="1.0" encoding="UTF-8"?>
<svg width="16px" height="16px" viewBox="0 0 16 16" version="1.1" xmlns="http://www.w3.org/2000/svg" xmlns:xlink="http://www.w3.org/1999/xlink">
    <!-- Generator: sketchtool 52.5 (67469) - http://www.bohemiancoding.com/sketch -->
    <title>30856A06-ED0F-4616-8F56-1C86AF64F08D</title>
    <desc>Created with sketchtool.</desc>
    <g id="symbols" stroke="none" stroke-width="1" fill="none" fill-rule="evenodd">
        <g id="ICON/16/add" stroke="#00994E">
            <path d="M6.5,4 L6.5,6.5 L4,6.5 C3.17157288,6.5 2.5,7.17157288 2.5,8 C2.5,8.82842712 3.17157288,9.5 4,9.5 L6.5,9.5 L6.5,12 C6.5,12.8284271 7.17157288,13.5 8,13.5 C8.82842712,13.5 9.5,12.8284271 9.5,12 L9.5,9.5 L12,9.5 C12.8284271,9.5 13.5,8.82842712 13.5,8 C13.5,7.17157288 12.8284271,6.5 12,6.5 L9.5,6.5 L9.5,4 C9.5,3.17157288 8.82842712,2.5 8,2.5 C7.17157288,2.5 6.5,3.17157288 6.5,4 Z" id="Combined-Shape"></path>
        </g>
    </g>
</svg>