<?xml version="1.0" encoding="UTF-8"?>
<svg width="16px" height="16px" viewBox="0 0 16 16" version="1.1" xmlns="http://www.w3.org/2000/svg" xmlns:xlink="http://www.w3.org/1999/xlink">
    <!-- Generator: sketchtool 52.5 (67469) - http://www.bohemiancoding.com/sketch -->
    <title>FA231B1A-E903-4665-A167-813199FEED95</title>
    <desc>Created with sketchtool.</desc>
    <g id="symbols" stroke="none" stroke-width="1" fill="none" fill-rule="evenodd">
        <g id="ICON/16/added" fill="#FF6000">
            <path d="M6,6 L6,4 C6,2.8954305 6.8954305,2 8,2 C9.1045695,2 10,2.8954305 10,4 L10,6 L12,6 C13.1045695,6 14,6.8954305 14,8 C14,9.1045695 13.1045695,10 12,10 L10,10 L10,12 C10,13.1045695 9.1045695,14 8,14 C6.8954305,14 6,13.1045695 6,12 L6,10 L4,10 C2.8954305,10 2,9.1045695 2,8 C2,6.8954305 2.8954305,6 4,6 L6,6 Z" id="Combined-Shape"></path>
        </g>
    </g>
</svg>