<?xml version="1.0" encoding="UTF-8"?>
<svg width="16px" height="16px" viewBox="0 0 16 16" version="1.1" xmlns="http://www.w3.org/2000/svg" xmlns:xlink="http://www.w3.org/1999/xlink">
    <!-- Generator: sketchtool 52.5 (67469) - http://www.bohemiancoding.com/sketch -->
    <title>6AC2CDBE-CF15-4ED7-8BA5-D0BB75AC38A1</title>
    <desc>Created with sketchtool.</desc>
    <g id="symbols" stroke="none" stroke-width="1" fill="none" fill-rule="evenodd">
        <g id="ICON/16/heart" fill-rule="nonzero" stroke="#FF6000">
            <path d="M7.96675104,12.2219382 L11.9039198,9.11771758 C12.6610977,8.51118708 13.1744577,7.75408837 13.3948894,6.9283746 C13.5092954,6.5004067 13.5184203,6.19669818 13.488152,6.02939076 L13.4827863,5.99150931 C13.3337671,4.5419105 12.1833606,3.50020397 10.7325749,3.50020397 C9.76567098,3.50020397 8.87668944,3.95538229 8.38111133,4.68858616 L7.96229995,5.30821428 L7.54979351,4.68437102 C7.05934482,3.94265384 6.21487495,3.5 5.26738291,3.5 C3.8167237,3.5 2.66621571,4.54179845 2.5117703,6.03064648 C2.48154207,6.19494779 2.49066829,6.50029362 2.60510528,6.92851274 C2.82553307,7.75403118 3.33898796,8.51126976 4.09627274,9.11770176 L7.96675104,12.2219382 Z" id="Path"></path>
        </g>
    </g>
</svg>