<?xml version="1.0" encoding="UTF-8"?>
<svg width="100px" height="100px" viewBox="0 0 100 100" version="1.1" xmlns="http://www.w3.org/2000/svg" xmlns:xlink="http://www.w3.org/1999/xlink">
    <!-- Generator: sketchtool 52.5 (67469) - http://www.bohemiancoding.com/sketch -->
    <title>698D9EDE-8B1E-4A90-A9ED-6978988AFE9D</title>
    <desc>Created with sketchtool.</desc>
    <g id="symbols" stroke="none" stroke-width="1" fill="none" fill-rule="evenodd">
        <g id="ICON/100/404">
            <circle id="Oval" fill="#F9FBF7" cx="50" cy="50" r="50"></circle>
            <path d="M28.9287109,76 C27.8334418,76 26.1905382,76 24,76 C22.8954305,76 22,75.1045695 22,74 L22,20 C22,18.8954305 22.8954305,18 24,18 L59,18 C60.1045695,18 61,18.8954305 61,20 C61,21.9904514 61,23.4832899 61,24.4785156" id="Path" stroke="#979797" stroke-width="4" stroke-linecap="round" stroke-linejoin="round" stroke-dasharray="5,1"></path>
            <path d="M68,72 L68,81 C68,82.1045695 67.1045695,83 66,83 L31,83 C29.8954305,83 29,82.1045695 29,81 L29,27 C29,25.8954305 29.8954305,25 31,25 L66,25 C67.1045695,25 68,25.8954305 68,27 L68,46.9628906" id="Path-Copy" stroke="#979797" stroke-width="4" stroke-linecap="round" stroke-linejoin="round" stroke-dasharray="5,1"></path>
            <path d="M37.5,37.5 L59.5,37.5" id="Line-2" stroke="#979797" stroke-width="4" stroke-linecap="round"></path>
            <path d="M37.5,46.5 L59.5,46.5" id="Line-2-Copy" stroke="#979797" stroke-width="4" stroke-linecap="round"></path>
            <path d="M37.5,55.5 L50,55.5" id="Line-2-Copy-2" stroke="#979797" stroke-width="4" stroke-linecap="round"></path>
            <path d="M37.5,64.5 L50,64.5" id="Line-2-Copy-3" stroke="#979797" stroke-width="4" stroke-linecap="round"></path>
            <g id="Group-41" transform="translate(50.000000, 46.000000)">
                <g id="Group-2" transform="translate(22.000000, 21.000000)" stroke="#949494" stroke-linecap="round" stroke-linejoin="round" stroke-width="5">
                    <path d="M2.67172892,0.228535178 L6.12227499,11.8400219" id="Line-4" transform="translate(4.397002, 6.034279) rotate(-30.000000) translate(-4.397002, -6.034279) "></path>
                </g>
                <circle id="Oval" stroke="#979797" stroke-width="4" cx="13" cy="13" r="13"></circle>
            </g>
        </g>
    </g>
</svg>