<?xml version="1.0" encoding="UTF-8"?>
<svg width="50px" height="50px" viewBox="0 0 50 50" version="1.1" xmlns="http://www.w3.org/2000/svg" xmlns:xlink="http://www.w3.org/1999/xlink">
    <!-- Generator: sketchtool 52.6 (67491) - http://www.bohemiancoding.com/sketch -->
    <title>86EE17C9-DD2F-424C-9200-DD5275836960</title>
    <desc>Created with sketchtool.</desc>
    <g id="symbols" stroke="none" stroke-width="1" fill="none" fill-rule="evenodd" stroke-linecap="round" stroke-linejoin="round">
        <g id="ICON/50/介紹" stroke="#00994E" stroke-width="2">
            <g id="Group-13" transform="translate(7.000000, 7.000000)">
                <path d="M24,34.9982808 C24,34.9982808 20.4197089,35.2078307 20.4197089,31 L0,31 C0,35.2078307 3.58122519,34.9982808 3.58122519,34.9982808 L24,34.9982808 Z" id="Stroke-1"></path>
                <path d="M23.4653644,34.9991406 C23.4653644,34.9991406 27.0731492,35.1765212 26.9988685,30.4346726 L26.9998088,29.4329938 L27,5 L6,5 L6,30.0789628" id="Stroke-3"></path>
                <path d="M31.4653644,29.9991406 C31.4653644,29.9991406 35.0731492,30.1765212 34.9988685,25.4346726 L34.9998088,24.4329938 L35,0 L14,0 L14,4.56508594" id="Stroke-5"></path>
                <path d="M10,12.5 L24,12.5" id="Stroke-7"></path>
                <path d="M10,18.5 L24,18.5" id="Stroke-9"></path>
                <path d="M10,24.5 L16,24.5" id="Stroke-11"></path>
            </g>
        </g>
    </g>
</svg>