<?xml version="1.0" encoding="UTF-8"?>
<svg width="50px" height="50px" viewBox="0 0 50 50" version="1.1" xmlns="http://www.w3.org/2000/svg" xmlns:xlink="http://www.w3.org/1999/xlink">
    <!-- Generator: sketchtool 52.6 (67491) - http://www.bohemiancoding.com/sketch -->
    <title>B94E99D2-FBFF-4863-9135-243EB33C02CF</title>
    <desc>Created with sketchtool.</desc>
    <g id="symbols" stroke="none" stroke-width="1" fill="none" fill-rule="evenodd">
        <g id="ICON/50/第一桶金">
            <g id="Group-9" transform="translate(4.000000, 4.000000)">
                <path d="M25.7402,9.7676 C25.7402,9.7676 5.3902,6.3636 3.0222,20.3496 C1.7642,28.7866 8.4252,34.1886 8.4252,34.1886 L7.74933028,36.8440197 C7.50069331,37.8208877 8.01789307,38.8301196 8.95607205,39.1987815 L11.8427052,40.3330978 C12.8006692,40.7095344 13.8879178,40.2974332 14.3556911,39.3805974 L15.3062,37.5176 C15.3062,37.5176 20.1902,39.5156 25.5182,37.4436 L26.5972144,39.6005077 C27.0719178,40.5494214 28.2050183,40.9624915 29.1790424,40.5417092 L31.8499014,39.3878874 C32.7609592,38.9943068 33.2455964,37.9921682 32.9884275,37.0336297 L32.6222,35.6686 C32.6222,35.6686 38.3212,32.8556 39.0612,28.1936 L40.6132,28.1936 C41.7177695,28.1936 42.6132,27.2981695 42.6132,26.1936 L42.6132,22.7936 C42.6132,21.6890305 41.7177695,20.7936 40.6132,20.7936 L39.0612,20.7936 C39.0612,20.7936 37.4322,13.3946 31.8822,11.4686 C31.8822,11.4686 31.5122,7.4006 32.1052,5.9936 C32.1052,5.9936 28.1082,5.1796 25.7402,9.7676 Z" id="Stroke-1" stroke="#00994E" stroke-width="2" stroke-linecap="round" stroke-linejoin="round"></path>
                <path d="M1.542,11.7656 C1.542,11.7656 -2.852,16.8016 3.193,19.4996" id="Stroke-3" stroke="#00994E" stroke-width="2" stroke-linecap="round" stroke-linejoin="round"></path>
                <path d="M9.0933,8.9356 C8.9943,8.4506 8.9423,7.9496 8.9423,7.4356 C8.9423,3.3296 12.2713,-0.0004 16.3793,-0.0004 C19.7903,-0.0004 22.6653,2.2956 23.5423,5.4286" id="Stroke-5" stroke="#00994E" stroke-width="2" stroke-linecap="round" stroke-linejoin="round"></path>
                <path d="M33.875,19.937 C33.875,21.00727 33.007,21.874 31.9381739,21.874 C30.868,21.874 30,21.00727 30,19.937 C30,18.86673 30.868,18 31.9381739,18 C33.007,18 33.875,18.86673 33.875,19.937" id="Fill-7" fill="#00994E"></path>
            </g>
        </g>
    </g>
</svg>