<?xml version="1.0" encoding="UTF-8"?>
<svg width="120px" height="65px" viewBox="0 0 120 65" version="1.1" xmlns="http://www.w3.org/2000/svg" xmlns:xlink="http://www.w3.org/1999/xlink">
    <!-- Generator: sketchtool 53.1 (72631) - https://sketchapp.com -->
    <title>0F97B86A-728C-41F2-ADE5-075C2E260306</title>
    <desc>Created with sketchtool.</desc>
    <g id="symbols" stroke="none" stroke-width="1" fill="none" fill-rule="evenodd">
        <g id="ICON/120/計算方式透明">
            <g id="Group" transform="translate(33.000000, 10.000000)">
                <g id="Group-9-Copy" transform="translate(41.711909, 20.463652) rotate(-13.000000) translate(-41.711909, -20.463652) translate(22.211909, 3.963652)" stroke="#17924C" stroke-linecap="round" stroke-linejoin="round" stroke-width="2.099">
                    <path d="M38.8715451,15.3128983 C39.630903,24.1412068 36.9457663,31.6059807 32.8736543,31.9849971 C28.8030225,32.3640135 24.8878149,25.5155263 24.1284571,16.6872179 C23.3690992,7.85736869 26.0542359,0.392594777 30.1248677,0.0151191092 C34.1954994,-0.365437992 38.1107071,6.48458983 38.8715451,15.3128983 Z" id="Stroke-1"></path>
                    <path d="M25,8.01574742 C27.9129708,7.74087414 30.5800139,11.0972997 30.9559723,15.511616 C31.3305173,19.9259323 29.2740532,23.7251267 26.3610824,24" id="Stroke-3"></path>
                    <path d="M28,30 C28,30 19.0106813,23.0691326 7.44951153,23.9039051 C2.27692926,24.3626539 0.319160834,22.1892374 0.0121195118,18.8095371 L0.0227595576,18.9313687 C-0.206761431,16.3834327 1.25548486,13.0684084 6.42806713,12.6096596 C17.9557968,11.4003677 27,1.61457063 25.5573495,3" id="Stroke-5"></path>
                    <path d="M12.4748841,24 L12.9877064,30.2985715 C13.1012111,31.6929117 12.4160805,32.8994367 11.4560771,32.9940956 C10.4974412,33.0887545 9.626327,32.0339842 9.51418985,30.6396439 L9,24.3410725" id="Stroke-7"></path>
                </g>
                <g id="Group-13-Copy" transform="translate(0.000000, 3.000000)">
                    <path d="M3,43 L28,43 C29.6568542,43 31,41.6568542 31,40 L31,3 C31,1.34314575 29.6568542,-3.04359188e-16 28,0 L3,0 C1.34314575,3.04359188e-16 -2.02906125e-16,1.34314575 0,3 L0,40 C2.02906125e-16,41.6568542 1.34314575,43 3,43 Z" id="Stroke-1" stroke="#00994E" stroke-width="2" fill="#C0E3D2"></path>
                    <path d="M5,15 L25,15 C25.5522847,15 26,14.5522847 26,14 L26,9 C26,8.44771525 25.5522847,8 25,8 L5,8 C4.44771525,8 4,8.44771525 4,9 L4,14 C4,14.5522847 4.44771525,15 5,15 Z" id="Stroke-3" stroke="#17924C" stroke-width="2.099" stroke-linecap="round" stroke-linejoin="round"></path>
                    <path d="M5,22 L8,22" id="Stroke-4" stroke="#17924C" stroke-width="2.099" stroke-linecap="round" stroke-linejoin="round"></path>
                    <path d="M12,22 L15,22" id="Stroke-5" stroke="#17924C" stroke-width="2.099" stroke-linecap="round" stroke-linejoin="round"></path>
                    <path d="M19,22 L26,22" id="Stroke-6" stroke="#17924C" stroke-width="2.099" stroke-linecap="round" stroke-linejoin="round"></path>
                    <path d="M5,29 L8,29" id="Stroke-7" stroke="#17924C" stroke-width="2.099" stroke-linecap="round" stroke-linejoin="round"></path>
                    <path d="M12,29 L15,29" id="Stroke-8" stroke="#17924C" stroke-width="2.099" stroke-linecap="round" stroke-linejoin="round"></path>
                    <path d="M19,29 L26,29" id="Stroke-9" stroke="#17924C" stroke-width="2.099" stroke-linecap="round" stroke-linejoin="round"></path>
                    <path d="M5,35 L8,35" id="Stroke-10" stroke="#17924C" stroke-width="2.099" stroke-linecap="round" stroke-linejoin="round"></path>
                    <path d="M12,35 L15,35" id="Stroke-11" stroke="#17924C" stroke-width="2.099" stroke-linecap="round" stroke-linejoin="round"></path>
                    <path d="M19,35 L26,35" id="Stroke-12" stroke="#17924C" stroke-width="2.099" stroke-linecap="round" stroke-linejoin="round"></path>
                </g>
            </g>
        </g>
    </g>
</svg>