<?xml version="1.0" encoding="UTF-8"?>
<svg width="30px" height="30px" viewBox="0 0 30 30" version="1.1" xmlns="http://www.w3.org/2000/svg" xmlns:xlink="http://www.w3.org/1999/xlink">
    <!-- Generator: sketchtool 52.6 (67491) - http://www.bohemiancoding.com/sketch -->
    <title>E8F3E338-9AE7-4655-B46A-B97FAE2482E2</title>
    <desc>Created with sketchtool.</desc>
    <g id="symbols" stroke="none" stroke-width="1" fill="none" fill-rule="evenodd">
        <g id="ICON/30/marketing" fill="#00994E" fill-rule="nonzero">
            <g id="screen" transform="translate(3.000000, 3.000000)">
                <path d="M18.8047111,7.47400363 L17.4713778,6.18829241 C17.2110667,5.93723586 16.7889333,5.93723586 16.5285778,6.18829241 L15.1952444,7.47400363 C15.0702222,7.59460335 15,7.75810296 15,7.92858827 L15,14.3571444 C15,14.7121721 15.2984889,15 15.6666667,15 L18.3333333,15 C18.7015111,15 19,14.7121721 19,14.3571444 L19,7.92858827 C19,7.75810296 18.9297778,7.59460335 18.8047111,7.47400363 Z M17.6666667,13.7142857 L16.3333333,13.7142857 L16.3333333,7.95634912 L17,7.28571429 L17.6666667,7.95634912 L17.6666667,13.7142857 Z" id="Shape"></path>
                <path d="M8.80471111,11.4330565 L7.47137778,10.1830617 C7.21106667,9.93897942 6.78893333,9.93897942 6.52857778,10.1830617 L5.19524444,11.4330565 C5.07022222,11.550306 5,11.7092637 5,11.875013 L5,14.3750026 C5,14.7201678 5.29848889,15 5.66666667,15 L8.33333333,15 C8.70151111,15 9,14.7201678 9,14.3750026 L9,11.875013 C9,11.7092637 8.92977778,11.550306 8.80471111,11.4330565 Z M7.66666667,13.5714286 L6.33333333,13.5714286 L6.33333333,12.0261667 L7,11.4285714 L7.66666667,12.0261667 L7.66666667,13.5714286 Z" id="Shape"></path>
                <path d="M13.8047111,8.52859575 L12.4713778,7.19526612 C12.2110667,6.93491129 11.7889333,6.93491129 11.5285778,7.19526612 L10.1952444,8.52859575 C10.0702222,8.65366207 10,8.82321716 10,9.00001667 L10,14.3333352 C10,14.7015119 10.2984889,15 10.6666667,15 L13.3333333,15 C13.7015111,15 14,14.7015119 14,14.3333352 L14,9.00001667 C14,8.82321716 13.9297778,8.65366207 13.8047111,8.52859575 Z M12.6666667,13.6666667 L11.3333333,13.6666667 L11.3333333,9.03640135 L12,8.33333333 L12.6666667,9.03640135 L12.6666667,13.6666667 Z" id="Shape"></path>
                <path d="M21.890625,0 L2.109375,0 C0.946265625,0 0,0.946265625 0,2.109375 L0,3.515625 C0,3.9039375 0.3148125,4.21875 0.703125,4.21875 L1.40625,4.21875 L1.40625,16.265625 C1.40625,17.4287344 2.35251563,18.375 3.515625,18.375 L11.296875,18.375 L11.296875,19.9021875 C10.4784844,20.1924375 9.890625,20.9739844 9.890625,21.890625 C9.890625,23.0537344 10.8368906,24 12,24 C13.1631094,24 14.109375,23.0537344 14.109375,21.890625 C14.109375,20.9739844 13.5215156,20.1924375 12.703125,19.9021875 L12.703125,18.375 L20.484375,18.375 C21.6474844,18.375 22.59375,17.4287344 22.59375,16.265625 L22.59375,4.21875 L23.296875,4.21875 C23.6851875,4.21875 24,3.9039375 24,3.515625 L24,2.109375 C24,0.946265625 23.0537344,0 21.890625,0 Z M12,22.59375 C11.6122969,22.59375 11.296875,22.2783281 11.296875,21.890625 C11.296875,21.5029219 11.6122969,21.1875 12,21.1875 C12.3877031,21.1875 12.703125,21.5029219 12.703125,21.890625 C12.703125,22.2783281 12.3877031,22.59375 12,22.59375 Z M21.1875,16.265625 C21.1875,16.6533281 20.8720781,16.96875 20.484375,16.96875 L3.515625,16.96875 C3.12792187,16.96875 2.8125,16.6533281 2.8125,16.265625 L2.8125,4.21875 L21.1875,4.21875 L21.1875,16.265625 Z M22.59375,2.8125 L1.40625,2.8125 L1.40625,2.109375 C1.40625,1.72167187 1.72167188,1.40625 2.109375,1.40625 L21.890625,1.40625 C22.2783281,1.40625 22.59375,1.72167187 22.59375,2.109375 L22.59375,2.8125 Z" id="Shape"></path>
            </g>
        </g>
    </g>
</svg>