<?xml version="1.0" encoding="UTF-8"?>
<svg width="30px" height="30px" viewBox="0 0 30 30" version="1.1" xmlns="http://www.w3.org/2000/svg" xmlns:xlink="http://www.w3.org/1999/xlink">
    <!-- Generator: sketchtool 53.2 (72643) - https://sketchapp.com -->
    <title>02B35DFE-8017-44F9-9561-ED7515D8BEC9</title>
    <desc>Created with sketchtool.</desc>
    <g id="symbols" stroke="none" stroke-width="1" fill="none" fill-rule="evenodd" stroke-linecap="round" stroke-linejoin="round">
        <g id="ICON/30/Introduction" stroke="#00994E" stroke-width="1.5">
            <g id="Group-13" transform="translate(3.000000, 4.000000)">
                <path d="M15,21.9991404 C15,21.9991404 12.7623181,22.1039154 12.7623181,20 L0,20 C0,22.1039154 2.23826574,21.9991404 2.23826574,21.9991404 L15,21.9991404 Z" id="Stroke-1"></path>
                <path d="M14.6435763,21.9994557 C14.6435763,21.9994557 17.0487661,22.1117967 16.9992457,19.108626 L16.9998725,18.4742294 L17,3 L3,3 L3,18.8833431" id="Stroke-3"></path>
                <path d="M19.6435763,18.9994557 C19.6435763,18.9994557 22.0487661,19.1117967 21.9992457,16.108626 L21.9998725,15.4742294 L22,0 L8,0 L8,2.89122109" id="Stroke-5"></path>
                <path d="M6,7.5 L14,7.5" id="Stroke-7"></path>
                <path d="M6,11.5 L14,11.5" id="Stroke-9"></path>
                <path d="M6,15.5 L10,15.5" id="Stroke-11"></path>
            </g>
        </g>
    </g>
</svg>