<?xml version="1.0" encoding="UTF-8"?>
<svg width="120px" height="65px" viewBox="0 0 120 65" version="1.1" xmlns="http://www.w3.org/2000/svg" xmlns:xlink="http://www.w3.org/1999/xlink">
    <!-- Generator: sketchtool 53.1 (72631) - https://sketchapp.com -->
    <title>0A771FBB-9BA0-4494-AD84-F09C3326ADE6</title>
    <desc>Created with sketchtool.</desc>
    <g id="symbols" stroke="none" stroke-width="1" fill="none" fill-rule="evenodd">
        <g id="ICON/120/天期彈性高">
            <g id="Group-2" transform="translate(24.000000, 7.000000)">
                <rect id="Rectangle" fill="#00994E" x="8" y="22" width="29" height="4"></rect>
                <g id="Group" transform="translate(29.000000, 15.000000)">
                    <rect id="Rectangle-Copy-2" fill="#00994E" x="8" y="15" width="29" height="4"></rect>
                    <path d="M0,10.5 L43,10.5" id="Line-Copy" stroke="#00994E" stroke-linecap="square"></path>
                    <ellipse id="Oval-Copy" stroke="#979797" fill="#FFFFFF" cx="11" cy="18.5" rx="3" ry="3.5"></ellipse>
                    <path d="M3,0 L40,0 C41.6568542,-3.04359188e-16 43,1.34314575 43,3 L43,34 C43,35.6568542 41.6568542,37 40,37 L3,37 C1.34314575,37 2.02906125e-16,35.6568542 0,34 L0,3 C-2.02906125e-16,1.34314575 1.34314575,3.04359188e-16 3,0 Z" id="Rectangle-Copy-9" stroke="#17924C" stroke-width="1.5" fill="#FFFFFF" stroke-linecap="round" stroke-linejoin="round" stroke-dasharray="4"></path>
                    <path d="M0,10.6594629 L43,10.6594629" id="Path-Copy" stroke="#17924C" stroke-width="1.5" stroke-linecap="round" stroke-linejoin="round" stroke-dasharray="4"></path>
                    <rect id="Rectangle-Copy-10" fill="#00994E" x="8" y="17" width="6" height="7" rx="1"></rect>
                    <rect id="Rectangle-Copy-11" fill="#00994E" x="8" y="26" width="6" height="7" rx="1"></rect>
                    <rect id="Rectangle-Copy-12" fill="#00994E" x="18" y="17" width="6" height="7" rx="1"></rect>
                    <rect id="Rectangle-Copy-13" fill="#00994E" x="18" y="26" width="6" height="7" rx="1"></rect>
                    <rect id="Rectangle-Copy-14" fill="#00994E" x="29" y="17" width="6" height="7" rx="1"></rect>
                </g>
                <rect id="Rectangle" fill="#00994E" x="9" y="0" width="5" height="11" rx="1.5"></rect>
                <rect id="Rectangle-Copy" fill="#00994E" x="29" y="0" width="5" height="11" rx="1.5"></rect>
                <path d="M0,17.5 L43,17.5" id="Line" stroke="#00994E" stroke-linecap="square"></path>
                <ellipse id="Oval" stroke="#979797" fill="#FFFFFF" cx="11" cy="25.5" rx="3" ry="3.5"></ellipse>
                <rect id="Rectangle" stroke="#00994E" stroke-width="2" fill="#C0E3D2" x="0" y="7" width="43" height="37" rx="3"></rect>
                <path d="M-1.59872116e-13,17.6594629 L43,17.6594629" id="Path" stroke="#00994E" stroke-width="2"></path>
                <rect id="Rectangle" fill="#00994E" x="8" y="24" width="6" height="7" rx="1"></rect>
                <rect id="Rectangle-Copy-5" fill="#00994E" x="8" y="33" width="6" height="7" rx="1"></rect>
                <rect id="Rectangle-Copy-3" fill="#00994E" x="18" y="24" width="6" height="7" rx="1"></rect>
                <rect id="Rectangle-Copy-6" fill="#00994E" x="18" y="33" width="6" height="7" rx="1"></rect>
                <rect id="Rectangle-Copy-4" fill="#00994E" x="29" y="24" width="6" height="7" rx="1"></rect>
            </g>
        </g>
    </g>
</svg>