<?xml version="1.0" encoding="UTF-8"?>
<svg width="50px" height="50px" viewBox="0 0 50 50" version="1.1" xmlns="http://www.w3.org/2000/svg" xmlns:xlink="http://www.w3.org/1999/xlink">
    <!-- Generator: sketchtool 52.6 (67491) - http://www.bohemiancoding.com/sketch -->
    <title>0398BBE8-BBD4-4189-BD70-50ABB6F8687A</title>
    <desc>Created with sketchtool.</desc>
    <g id="symbols" stroke="none" stroke-width="1" fill="none" fill-rule="evenodd" stroke-linecap="round" stroke-linejoin="round">
        <g id="ICON/50/即時交易" stroke="#00994E" stroke-width="2">
            <g id="Group-3" transform="translate(9.000000, 8.000000)">
                <g id="Group-2">
                    <g id="Group">
                        <path d="M28.6771509,11.8161133 L32.5977513,13.6823244 C31.0372063,5.98134673 24.3107743,0.189811198 16.2494586,0.189811198 C8.34789677,0.189811198 1.72883514,5.75407559 0,13.2267657" id="Path"></path>
                        <path d="M32.5977513,20.4734987 C30.8689162,27.9461888 24.2498545,33.5104532 16.3482927,33.5104532 C8.28697703,33.5104532 1.56054503,27.7189177 0,20.01794 L3.92060041,21.8841511" id="Path"></path>
                    </g>
                </g>
                <path d="M21,14.5164713 C20.8650975,12.1721571 19.2492974,11 16.1525997,11 C13.6974794,11 12.4699192,12.0633152 12.4699192,14.1899456 C12.4699192,16.223138 13.6974794,17.2397342 16.1525997,17.2397342 C19.8352802,17.2397342 21,18.0371874 21,20.3252745 C21,22.6133616 18.0674425,23.2692871 15.9648604,23.2692871 C13.8622782,23.2692871 12,21.762019 12,19.5008766" id="Path-4"></path>
                <path d="M16.5,9.36956522 L16.5,25.8282099" id="Line-7"></path>
            </g>
        </g>
    </g>
</svg>