<?xml version="1.0" encoding="UTF-8"?>
<svg width="50px" height="50px" viewBox="0 0 50 50" version="1.1" xmlns="http://www.w3.org/2000/svg" xmlns:xlink="http://www.w3.org/1999/xlink">
    <!-- Generator: sketchtool 53.1 (72631) - https://sketchapp.com -->
    <title>1668CE59-1125-4892-82FD-D09C9486984E</title>
    <desc>Created with sketchtool.</desc>
    <g id="symbols" stroke="none" stroke-width="1" fill="none" fill-rule="evenodd" stroke-linecap="round" stroke-linejoin="round">
        <g id="ICON/50/退休信託" stroke="#00994E" stroke-width="1.774">
            <g id="Group" transform="translate(9.000000, 11.000000)">
                <path d="M11.8061817,19 L2.26773806,19 C1.01530091,19 1.22568622e-13,18.1045695 1.22568622e-13,17 C1.22568622e-13,16.9522136 0.00194192452,16.9044426 0.00582203439,16.8567789 L0.901287833,5.8567789 C0.986463209,4.81047525 1.97377891,4 3.16320386,4 L3.16320386,4 L28.247831,4 C29.437256,4 30.4245717,4.81047525 30.5097471,5.8567789 L31.4052129,16.8567789 C31.4949006,17.9585126 30.5549125,18.9157665 29.3056908,18.9948653 C29.2516464,18.9982873 29.1974803,19 29.1432968,19 L19.1934935,19" id="Path"></path>
                <polyline id="Path" points="30 21 30 29 1 29 1 21 1 21"></polyline>
                <rect id="Rectangle" x="12" y="17" width="7" height="5"></rect>
                <path d="M9.40874613,0 L21.5912539,3.99680289e-15 C22.3158026,3.86370545e-15 22.9836905,0.391867212 23.3371408,1.02435728 L23.8823529,2 C24.2445151,2.64807965 24.0127332,3.46704245 23.3646535,3.82920461 C23.1642407,3.94119998 22.9384837,4 22.7089009,4 L8.29109907,4 C7.54869173,4 6.94685166,3.39815994 6.94685166,2.65575259 C6.94685166,2.42616983 7.00565168,2.20041278 7.11764706,2 L7.66285916,1.02435728 C8.0163095,0.391867212 8.68419742,1.33097438e-16 9.40874613,0 Z" id="Rectangle"></path>
            </g>
        </g>
    </g>
</svg>