<?xml version="1.0" encoding="UTF-8"?>
<svg width="120px" height="65px" viewBox="0 0 120 65" version="1.1" xmlns="http://www.w3.org/2000/svg" xmlns:xlink="http://www.w3.org/1999/xlink">
    <!-- Generator: sketchtool 53.1 (72631) - https://sketchapp.com -->
    <title>41ABE908-C154-4E61-9841-6B3005D85828</title>
    <desc>Created with sketchtool.</desc>
    <g id="symbols" stroke="none" stroke-width="1" fill="none" fill-rule="evenodd">
        <g id="ICON/120/幣別多元">
            <g id="Group-2" transform="translate(34.000000, 7.000000)">
                <ellipse id="Oval-Copy-2" stroke="#00994E" stroke-width="2" cx="17" cy="12.5" rx="13" ry="12.5"></ellipse>
                <g id="Group" transform="translate(13.000000, 6.000000)" stroke="#17924C" stroke-linecap="round" stroke-linejoin="round" stroke-width="2.099">
                    <path d="M-2.27373675e-13,3.03333333 L8.9515948,3.03333333" id="Path-40"></path>
                    <path d="M-2.27373675e-13,6.5 L8.9515948,6.5" id="Path-40-Copy"></path>
                    <path d="M0.9,2.84217094e-14 L3.10864932,2.23847169" id="Path-41"></path>
                    <path d="M5.4,2.84217094e-14 L7.60864932,2.23847169" id="Path-41-Copy" transform="translate(6.504325, 1.119236) scale(-1, 1) translate(-6.504325, -1.119236) "></path>
                    <path d="M4.26768039,2.76750623 L4.26768039,12.5499441" id="Path-42"></path>
                </g>
                <ellipse id="Oval-Copy" stroke="#00994E" stroke-width="2" fill="#FFFFFF" cx="37" cy="26.5" rx="15" ry="14.5"></ellipse>
                <g id="Group-59" transform="translate(32.000000, 20.000000)" stroke-linecap="round" stroke-linejoin="round">
                    <path d="M8.10552969,2.70918777 C8.10552969,1.80748932 7.32886428,0 5.22269871,0 C3.64105197,0 2.21581701,1.4569046 2.7484261,3.6136145 C3.52913664,6.77433357 0.963174361,12.0180988 0.0031296196,12.9920968 C-0.147888654,13.1435167 5.19438278,11.0454649 10,12.9920968" id="Stroke-1" stroke="#17924C" stroke-width="2.099"></path>
                    <path d="M0,6.5 L5,6.5" id="Stroke-3" stroke="#00994E" stroke-width="1.5"></path>
                </g>
                <ellipse id="Oval" stroke="#00994E" stroke-width="2" fill="#C0E3D2" cx="15" cy="37.5" rx="15" ry="14.5"></ellipse>
                <g id="Group-7" transform="translate(10.000000, 27.000000)" stroke="#17924C" stroke-linecap="round" stroke-linejoin="round" stroke-width="2.099">
                    <path d="M5.20423601,11 C2.32980333,11 0,9.35487321 0,7.33165292 C0,5.30675222 2.32980333,3.66666667 5.20423601,3.66666667 C7.36258195,3.66666667 9.2082703,4.58921479 10,5.90834097" id="Stroke-1"></path>
                    <path d="M5.44776433,11 C7.96142209,11 10,12.3659636 10,14.0499516 C10,15.7423455 7.96142209,17.1111111 5.44776433,17.1111111 C3.56068247,17.1111111 1.94276349,16.3405675 1.25,15.2393907" id="Stroke-3"></path>
                    <path d="M5,0 L5,3.66666667" id="Stroke-5"></path>
                    <path d="M5,18.3333333 L5,22" id="Stroke-7"></path>
                </g>
            </g>
        </g>
    </g>
</svg>