<?xml version="1.0" encoding="UTF-8"?>
<svg width="16px" height="16px" viewBox="0 0 16 16" version="1.1" xmlns="http://www.w3.org/2000/svg" xmlns:xlink="http://www.w3.org/1999/xlink">
    <!-- Generator: sketchtool 53.2 (72643) - https://sketchapp.com -->
    <title>074848A9-8BFA-443F-8937-97C376D957DF</title>
    <desc>Created with sketchtool.</desc>
    <g id="Symbols" stroke="none" stroke-width="1" fill="none" fill-rule="evenodd">
        <g id="ICON/16/search/gray" fill="#606060" fill-rule="nonzero">
            <path d="M14.8408163,14.0767347 L11.7155102,10.9514286 C12.4902041,10.0069388 12.9571429,8.79714286 12.9571429,7.47857143 C12.9571429,4.45408163 10.5030612,2 7.47857143,2 C4.45142857,2 2,4.45408163 2,7.47857143 C2,10.5030612 4.45142857,12.9571429 7.47857143,12.9571429 C8.79714286,12.9571429 10.0042857,12.4928571 10.9487755,11.7181633 L14.0740816,14.8408163 C14.2863265,15.0530612 14.6285714,15.0530612 14.8408163,14.8408163 C15.0530612,14.6312245 15.0530612,14.2863265 14.8408163,14.0767347 Z M7.5,12 C5.01752266,12 3,9.98186763 3,7.50135993 C3,5.02085222 5.01752266,3 7.5,3 C9.97975831,3 12,5.02085222 12,7.50135993 C12,9.98186763 9.97975831,12 7.5,12 Z" id="Shape"></path>
        </g>
    </g>
</svg>