<?xml version="1.0" encoding="UTF-8"?>
<svg width="30px" height="30px" viewBox="0 0 30 30" version="1.1" xmlns="http://www.w3.org/2000/svg" xmlns:xlink="http://www.w3.org/1999/xlink">
    <!-- Generator: sketchtool 52.6 (67491) - http://www.bohemiancoding.com/sketch -->
    <title>0A6BF895-7C1E-42DB-88EA-99761FBF3E6B</title>
    <desc>Created with sketchtool.</desc>
    <g id="symbols" stroke="none" stroke-width="1" fill="none" fill-rule="evenodd" stroke-linecap="round" stroke-linejoin="round">
        <g id="ICON/30/financial" stroke="#00994E" stroke-width="1.5">
            <g id="Group-15" transform="translate(2.000000, 3.000000)">
                <g id="Group-9" transform="translate(6.000000, 4.134800)">
                    <path d="M3.8145,5.4551 C2.0235,5.4551 0.5705,4.7031 0.5705,3.7761 C0.5705,2.8471 2.0235,2.0941 3.8145,2.0941 C5.1605,2.0941 6.3115,2.5171 6.8045,3.1221" id="Stroke-1"></path>
                    <path d="M3.8145,5.4551 C5.6065,5.4551 7.0585,6.2071 7.0585,7.1341 C7.0585,8.0621 5.6065,8.8151 3.8145,8.8151 C2.4685,8.8151 1.3175,8.3921 0.8235,7.7871" id="Stroke-3"></path>
                    <path d="M3.8145,0.4556 L3.8145,2.0946" id="Stroke-5"></path>
                    <path d="M3.8145,8.8145 L3.8145,10.4545" id="Stroke-7"></path>
                </g>
                <g id="Group-14" transform="translate(0.000000, 0.134800)">
                    <path d="M18.8647,9.6079 C18.8647,14.6459 14.7807,18.7299 9.7417,18.7299 C4.7047,18.7299 0.6207,14.6459 0.6207,9.6079 C0.6207,4.5699 4.7047,0.4859 9.7417,0.4859 C14.7807,0.4859 18.8647,4.5699 18.8647,9.6079 Z" id="Stroke-10"></path>
                    <path d="M20.0952,5.8525 C23.3702,7.2365 25.6672,10.4785 25.6672,14.2575 C25.6672,19.2945 21.5832,23.3795 16.5452,23.3795 C13.9372,23.3795 11.5862,22.2855 9.9242,20.5315" id="Stroke-12"></path>
                </g>
            </g>
        </g>
    </g>
</svg>