<?xml version="1.0" encoding="UTF-8"?>
<svg width="120px" height="65px" viewBox="0 0 120 65" version="1.1" xmlns="http://www.w3.org/2000/svg" xmlns:xlink="http://www.w3.org/1999/xlink">
    <!-- Generator: sketchtool 53.1 (72631) - https://sketchapp.com -->
    <title>3B193F15-5052-43C0-9834-7D88B0D40A6B</title>
    <desc>Created with sketchtool.</desc>
    <g id="symbols" stroke="none" stroke-width="1" fill="none" fill-rule="evenodd">
        <g id="ICON/120/100%">
            <g id="Group-8" transform="translate(1.000000, 0.000000)">
                <ellipse id="Oval" stroke="#00994E" stroke-width="2" fill="#C0E3D2" cx="56.5" cy="29" rx="12.5" ry="12"></ellipse>
                <path d="M22,37.5283203 L22,13 C22,11.8954305 22.8954305,11 24,11 L90,11 C91.1045695,11 92,11.8954305 92,13 L92,45 C92,46.1045695 91.1045695,47 90,47 C67.3483073,47 50.3595378,47 39.0336914,47" id="Path" stroke="#17924C" stroke-width="2.099" stroke-linecap="round" stroke-linejoin="round"></path>
                <g id="Group-7" transform="translate(52.000000, 20.000000)" stroke="#17924C" stroke-linecap="round" stroke-linejoin="round" stroke-width="2.099">
                    <path d="M4.1633888,9 C1.86384266,9 0,7.65398717 0,5.99862511 C0,4.34188818 1.86384266,3 4.1633888,3 C5.89006556,3 7.36661624,3.7548121 8,4.83409716" id="Stroke-1"></path>
                    <path d="M4.35821146,9 C6.36913767,9 8,10.1176066 8,11.4954149 C8,12.8801009 6.36913767,14 4.35821146,14 C2.84854597,14 1.55421079,13.3695552 1,12.4685924" id="Stroke-3"></path>
                    <path d="M4,0 L4,3" id="Stroke-5"></path>
                    <path d="M4,15 L4,18" id="Stroke-7"></path>
                </g>
                <g id="Group-9" stroke-linecap="round" stroke-linejoin="round" transform="translate(22.762668, 45.894627) rotate(68.000000) translate(-22.762668, -45.894627) translate(10.262668, 26.394627)" stroke="#17924C" stroke-width="2.099">
                    <path d="M4.86346597,18.174995 C4.56010517,18.0839262 3.68673905,18 3.05473737,18 C1.62520977,18 0.550806926,19.1178255 0.332916825,21.1165783 C0.332916825,21.1165783 0.0488170243,23.1921147 0.0036740475,25.9116805 C-0.0547108691,29.443128 0.58150415,31.0127264 2.00200315,33.0424308 C3.95217975,35.8274709 8,39 8,39" id="Stroke-1"></path>
                    <path d="M5.28845583,27 L5,6.39855389 C5,4.79007464 5.57394401,2.95868611 7.64536552,3.00070999 C9.67583342,3.04151578 10.0610347,4.71394442 10.0966466,6.09098781 L11,20.639168" id="Stroke-3"></path>
                    <path d="M20,22 L19.432482,6.54901882 C19.432482,4.37453371 19.3570021,2.98984647 17.5267566,2.80629768 C15.9785676,2.65204496 15.8940074,3.73898857 15.8781169,4.65673249 C15.8627939,5.57387853 15.6006006,20.2362576 15.6006006,20.2362576 L15.0330827,4.61189158 C14.9825736,2.86608556 15.3355697,0.402825007 13.0938737,0.0446956207 C11.0303783,-0.285333463 10.1144043,1.26377044 10.0156562,2.9946295 C9.91690807,4.72429279 10.3175758,20.7582058 10.3175758,20.7582058" id="Stroke-5"></path>
                    <path d="M20,9.08852206 C23.0885403,8.61614123 23.96098,10.0728456 24.1320975,12.5386735 C24.3032149,15.0045014 25,23.0751278 25,26.186346 C25,33.6912964 20.4764065,38 20.4764065,38" id="Stroke-7"></path>
                </g>
                <g id="Group-9-Copy" stroke-linecap="round" stroke-linejoin="round" transform="translate(98.127807, 18.090740) scale(1, -1) rotate(-65.000000) translate(-98.127807, -18.090740) translate(85.627807, 2.090740)" stroke="#17924C" stroke-width="2.099">
                    <path d="M2.41155232,11.1433732 C1.25097116,11.7913335 0.550806926,12.1178255 0.332916825,14.1165783 C0.332916825,14.1165783 0.0488170243,16.1921147 0.0036740475,18.9116805 C-0.0547108691,22.443128 0.58150415,24.0127264 2.00200315,26.0424308 C3.95217975,28.8274709 8,32 8,32" id="Path"></path>
                    <path d="M5.28845583,20 C5.24173682,17.1077836 5.20669755,14.9386213 5.18333805,13.4925131" id="Path"></path>
                    <path d="M19.7614872,15.4509812 C19.6196628,11.589736 19.5132945,8.69380215 19.4423823,6.76317956 M15.3620878,13.6872388 C15.2711242,11.1829156 15.2029015,9.30467315 15.1574198,8.05251154 M10,10.9069071 C10.0454031,12.8621858 10.079063,14.209187 10.079063,14.209187" id="Shape"></path>
                    <path d="M24.1320975,5.53867351 C24.3032149,8.00450142 25,16.0751278 25,19.186346 C25,26.6912964 20.4764065,31 20.4764065,31" id="Stroke-7"></path>
                </g>
            </g>
        </g>
    </g>
</svg>