<?xml version="1.0" encoding="UTF-8"?>
<svg width="50px" height="50px" viewBox="0 0 50 50" version="1.1" xmlns="http://www.w3.org/2000/svg" xmlns:xlink="http://www.w3.org/1999/xlink">
    <!-- Generator: sketchtool 52.5 (67469) - http://www.bohemiancoding.com/sketch -->
    <title>09EEC8DC-33C3-4C49-9577-872BC39FB531</title>
    <desc>Created with sketchtool.</desc>
    <g id="symbols" stroke="none" stroke-width="1" fill="none" fill-rule="evenodd" stroke-linecap="round" stroke-linejoin="round">
        <g id="ICON/-50/優惠活動" stroke="#00994E">
            <g id="Group-10" transform="translate(6.000000, 11.000000)">
                <g id="Group-9">
                    <path d="M37.5960164,7.98453015 L29.2040405,1.27333333 L28.136129,0.473119311 C27.6422576,0.103048549 27.0051989,-0.0182966065 26.4098654,0.144305478 L1.81573347,6.86165376 C0.750196188,7.15268156 0.122330391,8.25239292 0.413353943,9.31793137 L5.2505348,27.0282444 C5.54155053,28.0937542 6.64121145,28.7216247 7.70673348,28.4306538 L32.3017285,21.7143808 C32.8869095,21.5545806 33.3679404,21.1378292 33.6094788,20.5813832 L35.1640625,17 L38.168479,10.3722193 C38.5461546,9.53906212 38.3104246,8.55585379 37.5960164,7.98453015 Z" id="Stroke-1" stroke-width="1.774"></path>
                    <path d="M13.6382,21.8359 L23.2822,4.6959" id="Stroke-3" stroke-width="2.29"></path>
                    <g id="Group-8" transform="translate(10.000000, 7.844700)" stroke-width="2">
                        <path d="M4.2876,1.2354 C5.4006,1.8624 5.7956,3.2714 5.1686,4.3844 C4.5426,5.4984 3.1336,5.8924 2.0196,5.2654 C0.9066,4.6394 0.5116,3.2294 1.1386,2.1164 C1.7656,1.0044 3.1746,0.6094 4.2876,1.2354 Z" id="Stroke-4"></path>
                        <path d="M15.4395,6.373 C16.5525,6.999 16.9465,8.409 16.3215,9.522 C15.6945,10.635 14.2845,11.029 13.1715,10.403 C12.0575,9.776 11.6635,8.367 12.2905,7.254 C12.9165,6.141 14.3255,5.746 15.4395,6.373 Z" id="Stroke-6"></path>
                    </g>
                </g>
            </g>
        </g>
    </g>
</svg>