<?xml version="1.0" encoding="UTF-8"?>
<svg width="50px" height="50px" viewBox="0 0 50 50" version="1.1" xmlns="http://www.w3.org/2000/svg" xmlns:xlink="http://www.w3.org/1999/xlink">
    <!-- Generator: sketchtool 52.6 (67491) - http://www.bohemiancoding.com/sketch -->
    <title>757446F8-51FF-4320-BA3C-20B23EB97D19</title>
    <desc>Created with sketchtool.</desc>
    <g id="symbols" stroke="none" stroke-width="1" fill="none" fill-rule="evenodd" stroke-linecap="round" stroke-linejoin="round">
        <g id="ICON/50/子女教育" stroke="#00994E" stroke-width="2">
            <g id="Group-21" transform="translate(5.000000, 10.000000)">
                <polygon id="Stroke-1" points="20.0162765 16.9860605 40 8.5 20.0162765 0.0139395044 20.0162765 0 20 0.00696975219 19.9837235 0 19.9837235 0.0139395044 0 8.5 19.9837235 16.9860605 19.9837235 17 20 16.9922558 20.0162765 17"></polygon>
                <polyline id="Stroke-3" points="0 10 0 11.4763902 19.9837235 19.9867971 19.9837235 20 20 19.9930103 20.0162765 20 20.0162765 19.9867971 40 11.4763902 40 10"></polyline>
                <path d="M21,7.5 C21,8.32860093 20.1048,9 19,9 C17.8952,9 17,8.32860093 17,7.5 C17,6.67139907 17.8952,6 19,6 C20.1048,6 21,6.67139907 21,7.5 Z" id="Stroke-5"></path>
                <polyline id="Stroke-7" points="21 8 30 12.0453025 30 23"></polyline>
                <path d="M28,26.5324582 C25.7287846,27.4814418 23.2176185,28.000786 19.352276,27.9999991 L18.3251608,27.9999991 C6.7433875,27.9999991 3,21.606557 3,21.606557 L3,16" id="Stroke-9"></path>
                <path d="M35,16 L35,21.1922026 C35,21.1922026 34.1494726,22.5724176 32,24" id="Stroke-11"></path>
                <path d="M32,25 C32,26.1046099 31.1046099,27 30,27 C28.8953901,27 28,26.1046099 28,25 C28,23.8953901 28.8953901,23 30,23 C31.1046099,23 32,23.8953901 32,25 Z" id="Stroke-13"></path>
                <path d="M30,29 L30,32" id="Stroke-17"></path>
            </g>
        </g>
    </g>
</svg>