<?xml version="1.0" encoding="UTF-8"?>
<svg width="120px" height="65px" viewBox="0 0 120 65" version="1.1" xmlns="http://www.w3.org/2000/svg" xmlns:xlink="http://www.w3.org/1999/xlink">
    <!-- Generator: sketchtool 53.1 (72631) - https://sketchapp.com -->
    <title>3824FBD8-08AF-45A1-A1B7-235C9BE9234D</title>
    <desc>Created with sketchtool.</desc>
    <g id="symbols" stroke="none" stroke-width="1" fill="none" fill-rule="evenodd">
        <g id="ICON/120/pay">
            <g id="Group-6" transform="translate(22.000000, 7.000000)">
                <g id="Group-4" transform="translate(0.000000, 20.000000)" stroke="#17924C" stroke-linecap="round" stroke-linejoin="round">
                    <g id="Group-Copy">
                        <g id="Group-13">
                            <path d="M13.8324015,19.0769231 C11.9077814,19.0769231 10.3478261,17.9725023 10.3478261,16.6142565 C10.3478261,15.2548826 11.9077814,14.1538462 13.8324015,14.1538462 C15.2775549,14.1538462 16.5133636,14.7731792 17.0434783,15.6587464" id="Stroke-1" stroke-width="2.099"></path>
                            <path d="M14.168724,19.0769231 C16.0922186,19.0769231 17.6521739,20.1773357 17.6521739,21.533947 C17.6521739,22.8973301 16.0922186,24 14.168724,24 C12.7246961,24 11.4866364,23.3792544 10.9565217,22.4921525" id="Stroke-3" stroke-width="2.099"></path>
                            <path d="M14,11.6923077 L14,14.1538462" id="Stroke-5" stroke-width="2.099"></path>
                            <path d="M14,24 L14,26.4615385" id="Stroke-7" stroke-width="2.099"></path>
                            <path d="M15.5305197,31.8690227 C26.329769,31.4364283 29.2013334,26.3407052 27.5791705,19.6414557 C25.8811548,12.6386311 19.9397256,7.38461538 13.9993799,7.38461538 C8.05903422,7.38461538 2.11868855,12.6386311 0.421756537,19.6414557 C-0.215405677,22.265211 -0.160141607,24.6461062 0.790183667,26.5944072 C0.790183667,26.5944072 2.97473983,32.9857449 15.5305197,31.8690227 Z" id="Stroke-9" stroke-width="1.5" fill="#C0E3D2" stroke-dasharray="4"></path>
                            <path d="M11.3144888,7.38461538 L7.91304348,1.02133618 C9.04615653,0.115030491 10.4636009,-0.191199506 12.1643236,0.115030491 C14.7159341,0.565368722 14.7159341,1.93101941 18.1173795,1.02133618 C20.3857117,0.417882951 19.8181021,2.53672433 16.4166568,7.38461538" id="Stroke-11" stroke-width="1.5" fill="#C0E3D2" stroke-dasharray="4"></path>
                        </g>
                    </g>
                    <g id="Group-3" transform="translate(11.000000, 13.000000)" stroke-width="1.5">
                        <path d="M3.1225416,6 C1.397882,6 0,5.10265811 0,3.99908341 C0,2.89459212 1.397882,2 3.1225416,2 C4.41754917,2 5.52496218,2.50320807 6,3.22273144" id="Stroke-1"></path>
                        <path d="M2.87846697,6 C4.602118,6 6,6.89408528 6,7.99633196 C6,9.1040807 4.602118,10 2.87846697,10 C1.58446798,10 0.475037821,9.4956442 0,8.77487391" id="Stroke-3"></path>
                        <path d="M2.5,0 L2.5,2" id="Stroke-5"></path>
                        <path d="M2.5,10 L2.5,12" id="Stroke-7"></path>
                    </g>
                </g>
                <g id="Group-Copy-8" transform="translate(31.000000, 0.000000)" stroke="#17924C" stroke-linecap="round" stroke-linejoin="round" stroke-width="2.099">
                    <g id="Group-13">
                        <path d="M22.7246596,31 C19.5627837,31 17,29.2053162 17,26.9981668 C17,24.7891842 19.5627837,23 22.7246596,23 C25.0988401,23 27.1290973,24.0064161 28,25.4454629" id="Stroke-1"></path>
                        <path d="M23.2771894,31 C26.4372163,31 29,32.7881706 29,34.9926639 C29,37.2081614 26.4372163,39 23.2771894,39 C20.904858,39 18.8709027,37.9912884 18,36.5497478" id="Stroke-3"></path>
                        <path d="M23,19 L23,23" id="Stroke-5"></path>
                        <path d="M23,39 L23,43" id="Stroke-7"></path>
                        <path d="M25.5144252,51.7871618 C43.2560492,51.084196 47.9736192,42.803646 45.3086372,31.9173655 C42.5190401,20.5377756 32.7581206,12 22.9989812,12 C13.2398419,12 3.48070262,20.5377756 0.692885739,31.9173655 C-0.353880755,36.1809678 -0.263089783,40.0499226 1.29815888,43.2159117 C1.29815888,43.2159117 4.88707257,53.6018355 25.5144252,51.7871618 Z" id="Stroke-9"></path>
                        <path d="M18.5880887,12 L13,1.65967129 C14.8615429,0.186924548 17.1902015,-0.310699197 19.9842459,0.186924548 C24.1761775,0.918724173 24.1761775,3.13790654 29.7642662,1.65967129 C33.4908121,0.679059796 32.5583106,4.12217703 26.9702219,12" id="Stroke-11"></path>
                    </g>
                </g>
                <g id="Group-5" transform="translate(16.000000, 1.000000)" fill="#C0E3D2">
                    <path d="M21.6015625,8.39307097 C5.41907765,9.89038542 0,15.2690475 0,15.2690475 C0,15.2690475 7.6274551,4.54785156 21.2480606,3 C21.2480606,4.63330078 21.2202148,4.57422331 21.6015625,8.39307097 Z" id="Path-2"></path>
                    <polygon id="Triangle" transform="translate(23.464135, 5.827694) rotate(95.000000) translate(-23.464135, -5.827694) " points="23.4641354 1.82769381 28.9641354 9.82769381 17.9641354 9.82769381"></polygon>
                </g>
            </g>
        </g>
    </g>
</svg>