<?xml version="1.0" encoding="UTF-8"?>
<svg width="120px" height="65px" viewBox="0 0 120 65" version="1.1" xmlns="http://www.w3.org/2000/svg" xmlns:xlink="http://www.w3.org/1999/xlink">
    <!-- Generator: sketchtool 53.1 (72631) - https://sketchapp.com -->
    <title>2A44563C-13BD-4C13-8F4F-206E842AF86D</title>
    <desc>Created with sketchtool.</desc>
    <g id="symbols" stroke="none" stroke-width="1" fill="none" fill-rule="evenodd" stroke-linecap="round" stroke-linejoin="round">
        <g id="ICON/120/收益型態">
            <g id="Group" transform="translate(25.000000, 8.000000)">
                <path d="M55.1989705,16.3233491 C52.1036304,15.4744666 48.6468017,15 45,15 C31.745166,15 21,21.2680135 21,29 C21,36.7319865 31.745166,43 45,43 C58.254834,43 69,36.7319865 69,29 C69,27.7086701 68.7002872,26.4581745 68.1392258,25.2708925 L45,26.7988735 L55.1989705,16.3233491 Z" id="Path" stroke="#00994E" stroke-width="2"></path>
                <path d="M21.206811,29.8248698 C20.931063,29.8901712 20.931063,32.5709067 21.206811,37.8670764 C24.046613,44.8522735 33.8000079,50 45.3954394,50 C56.9700738,50 66.3182866,44.8707225 69.1777344,37.9046439 L69.1777344,29" id="Path" stroke="#00994E" stroke-width="2"></path>
                <polygon id="Path-44" stroke="#00994E" stroke-width="2" fill="#C0E3D2" points="70.0147569 15 70.0147569 20.6808511 41 24.7988735 41 21"></polygon>
                <path d="M52,8 C60.7777778,8.80880503 66.7777778,11.1943396 70,15.1566038 C56.1419271,18.2265846 46.4752604,20.2077167 41,21.1 L52,8 Z" id="Path-43" stroke="#00994E" stroke-width="2" fill="#C0E3D2"></path>
                <g id="Group-Copy-8" stroke="#17924C" stroke-width="2.099">
                    <g id="Group-13">
                        <path d="M13.7390221,9 L9.60869565,1.24475347 C10.9846186,0.140193411 12.7058011,-0.233024398 14.7709644,0.140193411 C17.8693486,0.68904313 17.8693486,2.3534299 21.999675,1.24475347 C24.7540785,0.509294847 24.0648383,3.09163277 19.9345118,9" id="Stroke-11" fill="#FFFFFF"></path>
                        <path d="M18.8584882,38.8403714 C31.9718624,38.313147 35.458762,32.1027345 33.4889927,23.9380241 C31.4271166,15.4033317 24.2125239,9 16.999247,9 C9.78597013,9 2.57269324,15.4033317 0.512132937,23.9380241 C-0.261564036,27.1357259 -0.194457666,30.037442 0.959508738,32.4119337 C0.959508738,32.4119337 3.61218407,40.2013766 18.8584882,38.8403714 Z" id="Stroke-9" fill="#FFFFFF"></path>
                        <path d="M16.7964875,23.25 C14.4594488,23.25 12.5652174,21.9039872 12.5652174,20.2486251 C12.5652174,18.5918882 14.4594488,17.25 16.7964875,17.25 C18.5513166,17.25 20.0519415,18.0048121 20.6956522,19.0840972" id="Stroke-1"></path>
                        <path d="M17.2048792,23.25 C19.5405512,23.25 21.4347826,24.5911279 21.4347826,26.2444979 C21.4347826,27.906121 19.5405512,29.25 17.2048792,29.25 C15.4514168,29.25 13.9480585,28.4934663 13.3043478,27.4123109" id="Stroke-3"></path>
                        <path d="M17,14.25 L17,17.25" id="Stroke-5"></path>
                        <path d="M17,29.25 L17,32.25" id="Stroke-7"></path>
                    </g>
                </g>
            </g>
        </g>
    </g>
</svg>