<?xml version="1.0" encoding="UTF-8"?>
<svg width="50px" height="50px" viewBox="0 0 50 50" version="1.1" xmlns="http://www.w3.org/2000/svg" xmlns:xlink="http://www.w3.org/1999/xlink">
    <!-- Generator: sketchtool 53.1 (72631) - https://sketchapp.com -->
    <title>E112336F-49D7-4EFE-BF83-4E47EBBE503C</title>
    <desc>Created with sketchtool.</desc>
    <g id="symbols" stroke="none" stroke-width="1" fill="none" fill-rule="evenodd" stroke-linecap="round" stroke-linejoin="round">
        <g id="ICON/50/參考報價" stroke="#00994E" stroke-width="2">
            <g id="Group-23" transform="translate(6.000000, 6.000000)">
                <path d="M14.5,38 C20.299431,38 25,33.2996698 25,27.5005334 C25,21.7024638 20.299431,17 14.5,17 C8.70056899,17 4,21.7024638 4,27.5005334 C4,33.2996698 8.70056899,38 14.5,38 Z" id="Stroke-1"></path>
                <path d="M14.1227738,27 C12.3982569,27 11,26.1051408 11,25.0005167 C11,23.8958925 12.3982569,23 14.1227738,23 C15.4175824,23 16.5259568,23.5032291 17,24.2234565" id="Stroke-3"></path>
                <path d="M13.8778178,27 C15.602008,27 17,27.8956612 17,29 C17,30.1053719 15.602008,31 13.8778178,31 C12.5832544,31 11.47509,30.4969008 11,29.7768595" id="Stroke-5"></path>
                <path d="M14.5,21 L14.5,23" id="Stroke-7"></path>
                <path d="M14.5,32 L14.5,34" id="Stroke-9"></path>
                <path d="M28.1227738,15 C26.3982569,15 25,14.1051408 25,13.0005167 C25,11.8958925 26.3982569,11 28.1227738,11 C29.4175824,11 30.5259568,11.5032291 31,12.2234565" id="Stroke-11"></path>
                <path d="M27.8778178,15 C29.602008,15 31,15.8956612 31,17 C31,18.1053719 29.602008,19 27.8778178,19 C26.5832544,19 25.47509,18.4969008 25,17.7768595" id="Stroke-13"></path>
                <path d="M28.5,9 L28.5,11" id="Stroke-15"></path>
                <path d="M28.5,19 L28.5,21" id="Stroke-17"></path>
                <path d="M25.362391,25.5226783 C26.3525911,25.8329913 27.4074397,26 28.5,26 C34.2989738,26 39,21.2989738 39,15.5 C39,9.70102617 34.2989738,5 28.5,5 C22.7010262,5 18,9.70102617 18,15.5 C18,16.2456131 18.0775782,16.9707542 18.2241149,17.6721909" id="Stroke-19"></path>
                <path d="M20,7.71499568 C18.8696348,3.27895419 14.8930952,0 10.1604905,0 C4.54918688,0 0,4.60890233 0,10.2949438 C0,14.7731201 2.82271394,18.5836214 6.76299653,20" id="Stroke-21"></path>
            </g>
        </g>
    </g>
</svg>