<?xml version="1.0" encoding="UTF-8"?>
<svg width="50px" height="50px" viewBox="0 0 50 50" version="1.1" xmlns="http://www.w3.org/2000/svg" xmlns:xlink="http://www.w3.org/1999/xlink">
    <!-- Generator: sketchtool 52.6 (67491) - http://www.bohemiancoding.com/sketch -->
    <title>6EC0ECEF-7043-49B6-B712-160AB6F1CA11</title>
    <desc>Created with sketchtool.</desc>
    <g id="symbols" stroke="none" stroke-width="1" fill="none" fill-rule="evenodd">
        <g id="ICON/50/大哉問">
            <g id="Group-11" transform="translate(6.000000, 7.000000)">
                <path d="M22.7927198,11 L4.20728019,11 C1.88398289,11 0,12.9402841 0,15.3330111 L0,28.3349446 C0,30.7276716 1.88398289,32.6679557 4.20728019,32.6679557 L17.2872093,32.6679557 L22.4416438,37 L22.4416438,32.6679557 L22.7927198,32.6679557 C25.1169558,32.6679557 27,30.7276716 27,28.3349446 L27,15.3330111 C27,12.9402841 25.1169558,11 22.7927198,11 Z" id="Stroke-1" stroke="#00994E" stroke-width="2" stroke-linecap="round" stroke-linejoin="round"></path>
                <path d="M11,7.16584125 L11,4.19943783 C11,1.8795342 12.8839174,0 15.2071339,0 L33.7919274,0 C36.1160826,0 38,1.8795342 38,4.19943783 L38,16.7996252 C38,19.1195288 36.1160826,21 33.7919274,21 L30.399562,21" id="Stroke-3" stroke="#00994E" stroke-width="2" stroke-linecap="round" stroke-linejoin="round"></path>
                <path d="M9,22 C9,23.104 8.104,24 7,24 C5.896,24 5,23.104 5,22 C5,20.896 5.896,20 7,20 C8.104,20 9,20.896 9,22" id="Fill-5" fill="#00994E"></path>
                <path d="M15,22 C15,23.104 14.104,24 13,24 C11.896,24 11,23.104 11,22 C11,20.896 11.896,20 13,20 C14.104,20 15,20.896 15,22" id="Fill-7" fill="#00994E"></path>
                <path d="M22,22 C22,23.104 21.104,24 20,24 C18.896,24 18,23.104 18,22 C18,20.896 18.896,20 20,20 C21.104,20 22,20.896 22,22" id="Fill-9" fill="#00994E"></path>
            </g>
        </g>
    </g>
</svg>