<?xml version="1.0" encoding="UTF-8"?>
<svg width="30px" height="30px" viewBox="0 0 30 30" version="1.1" xmlns="http://www.w3.org/2000/svg" xmlns:xlink="http://www.w3.org/1999/xlink">
    <!-- Generator: sketchtool 52.6 (67491) - http://www.bohemiancoding.com/sketch -->
    <title>4EB627AE-CB5D-4F21-8DCA-FBC45CD6B45A</title>
    <desc>Created with sketchtool.</desc>
    <g id="symbols" stroke="none" stroke-width="1" fill="none" fill-rule="evenodd" stroke-linecap="round" stroke-linejoin="round">
        <g id="ICON/30/熱門標籤" stroke="#00994E" stroke-width="1.5">
            <g id="Group-2" transform="translate(2.000000, 4.000000)">
                <g id="Group-10-Copy-2">
                    <g id="Group-9">
                        <path d="M23.6976747,4.90238873 L18.7205388,0.834252874 L18.3266635,0.532598364 C17.8277173,0.15047392 17.1781736,0.0250987214 16.5728533,0.194077161 L1.83226325,4.30899248 C0.776710963,4.6036556 0.154885925,5.69291854 0.437813699,6.7516767 L3.18138792,17.0185429 C3.4665515,18.0856678 4.5627979,18.7195727 5.62992278,18.4344091 C5.63704224,18.4325066 5.64415113,18.4305648 5.65124913,18.4285837 L20.3726306,14.3197742 C20.9584705,14.1562635 21.4380682,13.7350474 21.67583,13.1752139 L22.5410657,11.137931 L24.2602079,7.26178636 C24.6254046,6.4383784 24.3951039,5.47244289 23.6976747,4.90238873 Z" id="Stroke-1"></path>
                    </g>
                </g>
                <g id="Group-10-Copy-3" transform="translate(3.000000, 7.000000)">
                    <g id="Group-9">
                        <path d="M0.383056641,10.5997166 L1.18138792,13.0185429 C1.4665515,14.0856678 2.5627979,14.7195727 3.62992278,14.4344091 C3.63704224,14.4325066 3.64415113,14.4305648 3.65124913,14.4285837 L18.3726306,10.3197742 C18.9584705,10.1562635 19.4380682,9.73504742 19.67583,9.17521394 L20.5410657,7.13793103 L22.2602079,3.26178636 C22.6254046,2.4383784 22.3951039,1.47244289 21.6976747,0.902388733 L21.4237383,0.678482756" id="Path"></path>
                    </g>
                </g>
                <circle id="Oval" cx="21.5" cy="6.5" r="1"></circle>
                <g id="Group" transform="translate(8.000000, 5.000000)">
                    <path d="M0,5.5 L7,5.5" id="Path-46-Copy"></path>
                    <path d="M7,0 L5,8" id="Path-47-Copy"></path>
                    <path d="M1,2.5 L8,2.5" id="Path-46"></path>
                    <path d="M3,0 L1,8" id="Path-47"></path>
                </g>
            </g>
        </g>
    </g>
</svg>