<?xml version="1.0" encoding="UTF-8"?>
<svg width="50px" height="50px" viewBox="0 0 50 50" version="1.1" xmlns="http://www.w3.org/2000/svg" xmlns:xlink="http://www.w3.org/1999/xlink">
    <!-- Generator: sketchtool 52.6 (67491) - http://www.bohemiancoding.com/sketch -->
    <title>F7DFFB86-84F3-4682-87B2-F4462347C640</title>
    <desc>Created with sketchtool.</desc>
    <g id="symbols" stroke="none" stroke-width="1" fill="none" fill-rule="evenodd" stroke-linecap="round" stroke-linejoin="round">
        <g id="ICON/50/LE" stroke="#00994E" stroke-width="2">
            <g id="Group-15" transform="translate(12.000000, 3.000000)">
                <g id="Group-5" transform="translate(3.000000, 22.000000)">
                    <polygon id="Stroke-1" points="10.5400952 23 20.9680952 0.453727273 0.112095238 0.453727273"></polygon>
                    <path d="M20.0990952,0.453309091 L5.32661905,10.2105364 L20.0990952,0.453309091 Z" id="Stroke-3"></path>
                </g>
                <path d="M5.47436523,27.312 L12,23 L5.47436523,27.312 Z" id="Stroke-6"></path>
                <path d="M10.4609375,37.5797119 L19.536499,31.5623967 L10.4609375,37.5797119 Z" id="Stroke-7"></path>
                <g id="Group-14">
                    <path d="M3.05695,14.2851955 C3.05695,14.2851955 -3.20038333,17.2041045 2.19028333,22.4083773" id="Stroke-8"></path>
                    <path d="M23.5006417,22.7407273 C23.5006417,22.7407273 25.1841417,21.7653182 25.126725,19.3806364 C25.1018083,18.2933636 24.6240583,16.5610455 22.2656417,16.5610455 L7.21164167,16.5610455 C4.96589167,16.5610455 0.0226416667,13.961 5.75239167,8.10540909" id="Stroke-10"></path>
                    <path d="M22.6019083,16.4526318 C22.6019083,16.4526318 24.2204083,15.4531773 24.173825,13.5264045 C24.1532417,12.6471773 23.3721583,10.5959955 21.4676583,10.5959955 L9.311575,10.5959955 C8.17949167,10.5959955 6.19374167,9.77426818 5.993325,8.00431364 C5.873075,6.94317727 6.87624167,2.93804091 10.322325,0.988268182 C10.322325,0.988268182 10.0211583,5.25163182 13.8409917,5.25163182 C17.6597417,5.25163182 20.130825,6.69749545 20.130825,10.0565409" id="Stroke-12"></path>
                </g>
            </g>
        </g>
    </g>
</svg>