<?xml version="1.0" encoding="UTF-8"?>
<svg width="120px" height="65px" viewBox="0 0 120 65" version="1.1" xmlns="http://www.w3.org/2000/svg" xmlns:xlink="http://www.w3.org/1999/xlink">
    <!-- Generator: sketchtool 53.2 (72643) - https://sketchapp.com -->
    <title>33B62403-0BC0-4AFF-A25A-6951E0EC2C5D</title>
    <desc>Created with sketchtool.</desc>
    <g id="symbols" stroke="none" stroke-width="1" fill="none" fill-rule="evenodd" stroke-linecap="round" stroke-linejoin="round">
        <g id="ICON/120/股票指數" stroke="#00994E" stroke-width="2">
            <g id="Group-2" transform="translate(35.000000, 10.000000)">
                <g id="Group">
                    <path d="M50,17.9072266 L50,31 C50,32.6568542 48.6568542,34 47,34 L3,34 C1.34314575,34 2.02906125e-16,32.6568542 0,31 L0,3 C-2.02906125e-16,1.34314575 1.34314575,-1.91608686e-15 3,-2.22044605e-15 L3,-2.66453526e-15 L47,-7.10542736e-15 C48.6568542,-7.40978655e-15 50,1.34314575 50,3 L50,9.12011719" id="Path"></path>
                    <path d="M0,28 L50,28 L50,31 C50,32.6568542 48.6568542,34 47,34 L3,34 C1.34314575,34 2.02906125e-16,32.6568542 0,31 L0,28 Z" id="Rectangle" fill="#C0E3D2"></path>
                    <rect id="Rectangle" x="23" y="34" width="4" height="9"></rect>
                    <rect id="Rectangle" transform="translate(25.000000, 44.500000) scale(1, -1) translate(-25.000000, -44.500000) " x="15" y="43" width="20" height="3"></rect>
                </g>
                <polyline id="Path-45" points="8 22.5 32 11.5 43 20.5 56.8535156 13"></polyline>
                <polygon id="Triangle" fill="#C0E3D2" transform="translate(57.927949, 12.221980) rotate(-303.000000) translate(-57.927949, -12.221980) " points="57.9279486 11.2219802 59.9279486 13.2219802 55.9279486 13.2219802"></polygon>
            </g>
        </g>
    </g>
</svg>