<?xml version="1.0" encoding="UTF-8"?>
<svg width="50px" height="50px" viewBox="0 0 50 50" version="1.1" xmlns="http://www.w3.org/2000/svg" xmlns:xlink="http://www.w3.org/1999/xlink">
    <!-- Generator: sketchtool 52.6 (67491) - http://www.bohemiancoding.com/sketch -->
    <title>D038AAD4-8731-46DE-8644-A8032FB23DB2</title>
    <desc>Created with sketchtool.</desc>
    <g id="symbols" stroke="none" stroke-width="1" fill="none" fill-rule="evenodd" stroke-linecap="round" stroke-linejoin="round">
        <g id="ICON/50/購屋計畫" stroke="#00994E" stroke-width="2">
            <g id="Group-9" transform="translate(5.000000, 4.000000)">
                <path d="M0,29.8106 C6.128,27.8936 10.205,26.9356 12.232,26.9356 C15.272,26.9356 20.673,29.4496 22.631,31.2626 C24.589,33.0776 23.952,35.9476 21.254,35.5896 C19.457,35.3526 17.074,34.5026 14.107,33.0366" id="Stroke-1"></path>
                <path d="M23.5645,31.5752 L30.3815,30.1532 C33.7345,29.6942 35.6905,30.3072 36.2525,31.9922 C36.8145,33.6792 35.9695,35.0982 33.7115,36.2492 L21.0775,41.2682 C18.5985,41.8742 16.7305,41.8432 15.4715,41.1772 C13.5855,40.1792 11.6465,38.0782 9.9845,37.5462 C8.3215,37.0132 2.4395,38.4392 0.0005,39.4882" id="Stroke-3"></path>
                <polyline id="Stroke-5" points="35.2046 29.2588 35.2046 14.0958 39.2906 13.3948 23.3436 -0.0002 7.3956 13.3948 11.0826 13.3948 11.0826 21.7648"></polyline>
                <polygon id="Stroke-7" points="20.14 27.0967 24.71 27.0967 24.71 19.2257 20.14 19.2257"></polygon>
            </g>
        </g>
    </g>
</svg>