<?xml version="1.0" encoding="UTF-8"?>
<svg width="50px" height="50px" viewBox="0 0 50 50" version="1.1" xmlns="http://www.w3.org/2000/svg" xmlns:xlink="http://www.w3.org/1999/xlink">
    <!-- Generator: sketchtool 52.6 (67491) - http://www.bohemiancoding.com/sketch -->
    <title>1F1F8BD3-28A5-45C8-AEDB-11C88E60218A</title>
    <desc>Created with sketchtool.</desc>
    <g id="symbols" stroke="none" stroke-width="1" fill="none" fill-rule="evenodd" stroke-linecap="round" stroke-linejoin="round">
        <g id="ICON/50/收費標準" stroke="#00994E" stroke-width="2">
            <g id="Group-15" transform="translate(5.000000, 5.000000)">
                <path d="M26.1620669,14 C23.8649442,14 22,12.6552595 22,11.0025245 C22,9.34474053 23.8649442,8 26.1620669,8 C27.8892151,8 29.3642592,8.75399719 30,9.83618513" id="Stroke-1"></path>
                <path d="M25.8363672,14 C28.1350558,14 30,15.3434343 30,16.9983165 C30,18.6582492 28.1350558,20 25.8363672,20 C24.1107849,20 22.634175,19.2441077 22,18.1649832" id="Stroke-3"></path>
                <path d="M26,20 L26,22" id="Stroke-5"></path>
                <path d="M26,5 L26,7" id="Stroke-7"></path>
                <path d="M26.5,27 C33.9550054,27 40,20.9550054 40,13.5 C40,6.04336827 33.9550054,0 26.5,0 C19.0433683,0 13,6.04336827 13,13.5 C13,20.9550054 19.0433683,27 26.5,27 Z" id="Stroke-9"></path>
                <path d="M0,26.9805013 C6.70218418,24.9929742 11.163086,24 13.3793727,24 C16.705469,24 22.6127895,26.60636 24.754089,28.4849598 C26.8970549,30.3651384 26.1988413,33.339325 23.249347,32.968341 C21.2813511,32.7236494 18.6767977,31.8427598 15.4306876,30.3225147" id="Stroke-11"></path>
                <path d="M25.232755,28.7443577 L32.5327666,27.1643438 C36.1232303,26.6529138 38.2178035,27.335385 38.8197486,29.2083704 C39.4216937,31.0830493 38.5163291,32.6613697 36.098761,33.9399448 L22.5704938,39.5199511 C19.9147578,40.1922614 17.9147993,40.1583919 16.5673558,39.4183425 C14.5478219,38.3074216 12.4711929,35.9738105 10.6914583,35.3810936 C8.9117236,34.7900702 2.61169128,36.373471 0,37.5402766" id="Stroke-13"></path>
            </g>
        </g>
    </g>
</svg>