<?xml version="1.0" encoding="UTF-8"?>
<svg width="50px" height="50px" viewBox="0 0 50 50" version="1.1" xmlns="http://www.w3.org/2000/svg" xmlns:xlink="http://www.w3.org/1999/xlink">
    <!-- Generator: sketchtool 52.5 (67469) - http://www.bohemiancoding.com/sketch -->
    <title>FDCD5F7B-9CC7-4C6E-AC2B-9030FB193C74</title>
    <desc>Created with sketchtool.</desc>
    <g id="symbols" stroke="none" stroke-width="1" fill="none" fill-rule="evenodd" stroke-linecap="round" stroke-linejoin="round">
        <g id="ICON/50/基金公告" stroke="#00994E" stroke-width="2">
            <g id="Group-9" transform="translate(6.000000, 9.000000)">
                <path d="M37.8716258,15.311931 C38.6307497,24.1418372 35.9453044,31.6056629 31.8743689,31.9849752 C27.8034334,32.3642874 23.8875302,25.5153369 23.1284063,16.6854307 C22.3692824,7.8564519 25.0538368,0.392626115 29.1247723,0.015168723 C33.1948168,-0.365998324 37.1107199,6.48295215 37.8716258,15.311931 Z" id="Stroke-1"></path>
                <path d="M24,8.01561773 C26.9128436,7.74195237 29.579831,11.0974832 29.9558465,15.5119022 C30.3310112,19.9254269 28.2739855,23.7254403 25.3611419,24" id="Stroke-3"></path>
                <path d="M28.2458837,30.4743595 C28.2458837,30.4743595 19.0113285,23.0700513 7.44884468,23.9039268 C2.27651571,24.3611549 0.318478563,22.1890949 0.0128783721,18.8101338 L0.022943049,18.9305523 C-0.20762955,16.3836558 1.25540849,13.0698836 6.42773746,12.6117501 C17.9545375,11.4012273 25.5579434,2.56508594 25.5579434,2.56508594" id="Stroke-5"></path>
                <path d="M12.4741377,25 L12.9878491,31.2983865 C13.1006351,32.6922991 12.8200212,33.8589633 11.4557708,33.9939475 C10.0915204,34.1289318 9.62649735,33.0351238 9.51288811,31.6384975 L8.95877436,25" id="Stroke-7"></path>
            </g>
        </g>
    </g>
</svg>