<?xml version="1.0" encoding="UTF-8"?>
<svg width="120px" height="65px" viewBox="0 0 120 65" version="1.1" xmlns="http://www.w3.org/2000/svg" xmlns:xlink="http://www.w3.org/1999/xlink">
    <!-- Generator: sketchtool 53.1 (72631) - https://sketchapp.com -->
    <title>49F5D68C-20E5-494B-8473-AB11C19DA65D</title>
    <desc>Created with sketchtool.</desc>
    <g id="symbols" stroke="none" stroke-width="1" fill="none" fill-rule="evenodd">
        <g id="ICON/120/門檻低">
            <path d="M41.4057209,38 L77.011844,38 C77.5641288,38 78.011844,38.4477153 78.011844,39 C78.011844,39.1953188 77.9546451,39.3863619 77.8473089,39.5495439 L69.2962966,52.5495439 C69.1113503,52.8307155 68.7973769,53 68.4608317,53 L32.8547086,53 C32.3024239,53 31.8547086,52.5522847 31.8547086,52 C31.8547086,51.8046812 31.9119075,51.6136381 32.0192437,51.4504561 L40.570256,38.4504561 C40.7552023,38.1692845 41.0691757,38 41.4057209,38 Z" id="Rectangle-Copy" stroke="#00994E" stroke-width="2"></path>
            <path d="M41.4057209,30 L77.011844,30 C77.5641288,30 78.011844,30.4477153 78.011844,31 C78.011844,31.1953188 77.9546451,31.3863619 77.8473089,31.5495439 L69.2962966,44.5495439 C69.1113503,44.8307155 68.7973769,45 68.4608317,45 L32.8547086,45 C32.3024239,45 31.8547086,44.5522847 31.8547086,44 C31.8547086,43.8046812 31.9119075,43.6136381 32.0192437,43.4504561 L40.570256,30.4504561 C40.7552023,30.1692845 41.0691757,30 41.4057209,30 Z" id="Rectangle" stroke="#00994E" stroke-width="2" fill="#FFFFFF"></path>
            <g id="Group-7" transform="translate(52.000000, 33.000000)" stroke="#17924C" stroke-linecap="round" stroke-linejoin="round" stroke-width="2.099">
                <path d="M3.6429652,4 C1.63086233,4 0,3.32699358 0,2.49931256 C0,1.67094409 1.63086233,1 3.6429652,1 C5.15380736,1 6.44578921,1.37740605 7,1.91704858" id="Stroke-1"></path>
                <path d="M3.35821146,4 C5.36913767,4 7,4.67056396 7,5.49724897 C7,6.32806052 5.36913767,7 3.35821146,7 C1.84854597,7 0.554210792,6.62173315 0,6.08115543" id="Stroke-3"></path>
                <path d="M3,0 L3,1" id="Stroke-5"></path>
                <path d="M3,7 L3,8" id="Stroke-7"></path>
            </g>
            <path d="M70,23 L74.9557557,23 L66.5,34.7079695 L58.0442443,23 L63,23 L63,14 C63,12.3431458 64.3431458,11 66,11 L67,11 C68.6568542,11 70,12.3431458 70,14 L70,23 Z" id="Combined-Shape" stroke="#00994E" stroke-width="2" fill="#C0E3D2" stroke-linecap="round" stroke-linejoin="round"></path>
            <path d="M100.601563,20.393071 C84.4190777,21.8903854 79,27.2690475 79,27.2690475 C79,27.2690475 86.6274551,16.5478516 100.248061,15 C100.248061,16.6333008 100.220215,16.5742233 100.601563,20.393071 Z" id="Path-2-Copy" fill="#C0E3D2"></path>
            <polygon id="Triangle-Copy" fill="#C0E3D2" transform="translate(102.464135, 17.827694) rotate(95.000000) translate(-102.464135, -17.827694) " points="102.464135 13.8276938 107.964135 21.8276938 96.9641354 21.8276938"></polygon>
        </g>
    </g>
</svg>