<?xml version="1.0" encoding="UTF-8"?>
<svg width="120px" height="65px" viewBox="0 0 120 65" version="1.1" xmlns="http://www.w3.org/2000/svg" xmlns:xlink="http://www.w3.org/1999/xlink">
    <!-- Generator: sketchtool 53.1 (72631) - https://sketchapp.com -->
    <title>F7EA3045-861A-40E4-B347-334BD7E193B2</title>
    <desc>Created with sketchtool.</desc>
    <defs>
        <polygon id="path-1" points="0 0 0.563829787 0 0.563829787 4.429769 0 4.429769"></polygon>
    </defs>
    <g id="symbols" stroke="none" stroke-width="1" fill="none" fill-rule="evenodd">
        <g id="ICON/120/風險承擔">
            <g id="Group" transform="translate(27.000000, 6.000000)">
                <g id="Group-9">
                    <g id="Group-8">
                        <path d="M53,31.5744681 C53,26.9530892 49.0660169,23.2058515 44.2143945,23.2058515 C39.362772,23.2058515 35.42958,26.9530892 35.42958,31.5744681 L35.3322786,31.5744681 C35.3322786,26.9530892 31.3982955,23.2058515 26.546673,23.2058515 C21.6950506,23.2058515 17.7618586,26.9530892 17.7618586,31.5744681 L17.57042,31.5744681 C17.57042,26.9530892 13.6364369,23.2058515 8.78481447,23.2058515 C3.93319204,23.2058515 0,26.9530892 0,31.5744681 L0.00870175229,31.4169941 C0.00870175229,16.5573969 11.8691901,4.5106383 26.5,4.5106383 C41.1308099,4.5106383 52.9912982,16.5573969 52.9912982,31.4169941 L53,31.5744681 Z" id="Stroke-1" stroke="#00994E" stroke-width="2" fill="#C0E3D2" stroke-linecap="round" stroke-linejoin="round"></path>
                        <path d="M25.9361702,23.6808511 L25.9361702,44.9024725 L25.9361702,46.3188717 C25.9361702,50.0084266 22.9066133,53 19.1702128,53 C15.4338123,53 12.4042553,50.0084266 12.4042553,46.3188717" id="Stroke-3" stroke="#00994E" stroke-width="2" stroke-linecap="round" stroke-linejoin="round"></path>
                        <g id="Group-7" transform="translate(25.936170, 0.000000)">
                            <mask id="mask-2" fill="white">
                                <use xlink:href="#path-1"></use>
                            </mask>
                            <use id="Clip-6" stroke="#00994E" stroke-width="2" stroke-linecap="round" stroke-linejoin="round" xlink:href="#path-1"></use>
                        </g>
                    </g>
                </g>
                <g id="Group-Copy-8" transform="translate(33.000000, 11.000000)" stroke="#17924C" stroke-linecap="round" stroke-linejoin="round" stroke-width="2.099">
                    <g id="Group-13">
                        <path d="M13.7390221,9 L9.60869565,1.24475347 C10.9846186,0.140193411 12.7058011,-0.233024398 14.7709644,0.140193411 C17.8693486,0.68904313 17.8693486,2.3534299 21.999675,1.24475347 C24.7540785,0.509294847 24.0648383,3.09163277 19.9345118,9" id="Stroke-11" fill="#FFFFFF"></path>
                        <path d="M18.8584882,38.8403714 C31.9718624,38.313147 35.458762,32.1027345 33.4889927,23.9380241 C31.4271166,15.4033317 24.2125239,9 16.999247,9 C9.78597013,9 2.57269324,15.4033317 0.512132937,23.9380241 C-0.261564036,27.1357259 -0.194457666,30.037442 0.959508738,32.4119337 C0.959508738,32.4119337 3.61218407,40.2013766 18.8584882,38.8403714 Z" id="Stroke-9" fill="#FFFFFF"></path>
                        <path d="M16.7964875,23.25 C14.4594488,23.25 12.5652174,21.9039872 12.5652174,20.2486251 C12.5652174,18.5918882 14.4594488,17.25 16.7964875,17.25 C18.5513166,17.25 20.0519415,18.0048121 20.6956522,19.0840972" id="Stroke-1"></path>
                        <path d="M17.2048792,23.25 C19.5405512,23.25 21.4347826,24.5911279 21.4347826,26.2444979 C21.4347826,27.906121 19.5405512,29.25 17.2048792,29.25 C15.4514168,29.25 13.9480585,28.4934663 13.3043478,27.4123109" id="Stroke-3"></path>
                        <path d="M17,14.25 L17,17.25" id="Stroke-5"></path>
                        <path d="M17,29.25 L17,32.25" id="Stroke-7"></path>
                    </g>
                </g>
            </g>
        </g>
    </g>
</svg>