<?xml version="1.0" encoding="UTF-8"?>
<svg width="16px" height="16px" viewBox="0 0 16 16" version="1.1" xmlns="http://www.w3.org/2000/svg" xmlns:xlink="http://www.w3.org/1999/xlink">
    <!-- Generator: sketchtool 52.5 (67469) - http://www.bohemiancoding.com/sketch -->
    <title>4447A3AD-0793-4D21-8217-840D3C8EB3C1</title>
    <desc>Created with sketchtool.</desc>
    <g id="symbols" stroke="none" stroke-width="1" fill="none" fill-rule="evenodd">
        <g id="ICON/16/info">
            <g id="Group-2" transform="translate(1.000000, 1.000000)" stroke="#ABABAB">
                <circle id="Oval" cx="7" cy="7" r="6.5"></circle>
            </g>
            <g id="Group" transform="translate(6.000000, 4.000000)" fill="#ABABAB">
                <path d="M2.26302347,6.4886963 L1.70013016,6.74213901 L2.43192664,2.998793 C2.51629027,2.60480287 2.09412029,2.18263289 1.64377047,2.4358997 L0.264717058,3.19587602 C0.0114502518,3.33659935 -0.0729133821,3.67422979 0.0678099438,3.9276725 C0.20853327,4.1809393 0.546163709,4.26530293 0.799430515,4.12457961 L1.13723686,3.95567644 L0.433620229,7.53011928 C0.377260537,7.83974577 0.630703247,8.17737621 0.968333687,8.17737621 C1.05287323,8.17737621 1.13723686,8.14937227 1.19359655,8.12119243 L2.68519344,7.47375958 C2.9666401,7.3612161 3.07918358,7.05158961 2.9666401,6.77014295 C2.85409662,6.4886963 2.54447012,6.37615282 2.26302347,6.4886963 Z" id="Fill-4"></path>
                <path d="M1.54637138,1.51977674 C1.96854136,1.51977674 2.3061718,1.1821463 2.3061718,0.759976321 C2.3061718,0.337806344 1.96854136,6.89448498e-14 1.54637138,6.89448498e-14 C1.1242014,6.89448498e-14 0.786395056,0.337806344 0.786395056,0.759976321 C0.786395056,1.1821463 1.1242014,1.51977674 1.54637138,1.51977674 Z" id="Fill-5"></path>
            </g>
        </g>
    </g>
</svg>