<?xml version="1.0" encoding="UTF-8"?>
<svg width="20px" height="20px" viewBox="0 0 20 20" version="1.1" xmlns="http://www.w3.org/2000/svg" xmlns:xlink="http://www.w3.org/1999/xlink">
    <!-- Generator: sketchtool 52.2 (67145) - http://www.bohemiancoding.com/sketch -->
    <title>6C991068-B2E4-4864-AA28-8A4427700618</title>
    <desc>Created with sketchtool.</desc>
    <g id="symbols" stroke="none" stroke-width="1" fill="none" fill-rule="evenodd">
        <g id="ICON/20/search/white" fill="#FFFFFF" fill-rule="nonzero">
            <path d="M19.7111175,18.2168311 L15.0272924,13.2661588 C16.2315861,11.8112558 16.8914258,9.98069024 16.8914258,8.0749921 C16.8914258,3.62251167 13.3269099,0 8.94571289,0 C4.56451589,0 1,3.62251167 1,8.0749921 C1,12.5274725 4.56451589,16.1499842 8.94571289,16.1499842 C10.5904755,16.1499842 12.1578537,15.6458238 13.4979154,14.6887617 L18.2173234,19.6770003 C18.4145844,19.8851947 18.6799021,20 18.9642204,20 C19.2333383,20 19.4886375,19.8957273 19.6824438,19.7061405 C20.094239,19.3034442 20.1073667,18.6356774 19.7111175,18.2168311 Z M9,2 C12.3084706,2 15,4.69152941 15,8 C15,11.3084706 12.3084706,14 9,14 C5.69152941,14 3,11.3084706 3,8 C3,4.69152941 5.69152941,2 9,2 Z" id="Shape"></path>
        </g>
    </g>
</svg>