<svg xmlns="http://www.w3.org/2000/svg" width="30" height="30" viewBox="0 0 30 30">
    <g fill="none" fill-rule="evenodd" opacity=".8" transform="translate(1 1)">
        <ellipse cx="13.694" cy="14" fill="#4A4A4A" rx="13.694" ry="14"/>
        <path fill="#FFF" d="M16.21 18.32l-5.465-3.343a2.7 2.7 0 0 0 .07-.565c0-.192-.032-.378-.07-.564l5.404-3.312c.412.401.957.652 1.562.652 1.274 0 2.3-1.078 2.3-2.418 0-1.337-1.027-2.417-2.3-2.417-1.272 0-2.3 1.08-2.3 2.417 0 .195.032.378.07.564l-5.404 3.315a2.226 2.226 0 0 0-1.562-.654c-1.274 0-2.3 1.08-2.3 2.417 0 1.338 1.026 2.418 2.3 2.418.604 0 1.15-.251 1.562-.652l5.456 3.35c-.037.17-.06.349-.06.526 0 1.298 1.005 2.353 2.237 2.353 1.233 0 2.24-1.054 2.24-2.353 0-1.298-1.006-2.353-2.24-2.353-.581 0-1.102.24-1.5.62z" opacity=".9"/>
    </g>
</svg>
