<svg xmlns="http://www.w3.org/2000/svg" width="30" height="30" viewBox="0 0 30 30">
    <g fill="none" fill-rule="evenodd">
        <circle cx="15" cy="15" r="14" fill="#FFA81A"/>
        <path fill="#FFF" d="M6.858 19.65a2 2 0 0 0 1.997 1.998h12.29a2.003 2.003 0 0 0 1.997-1.997v-9.154A2 2 0 0 0 21.145 8.5H8.855a2.003 2.003 0 0 0-1.997 1.997v9.154zm2.073-9.9h12.145l-4.648 4.548a2.046 2.046 0 0 1-2.848 0L8.931 9.75zm8.423 5.324L22 10.528v9.091l-4.646-4.545zm-9.346-4.546l4.646 4.546-4.646 4.545v-9.09zm8.486 5.387l4.582 4.483H8.931l4.582-4.483.064.063a2.05 2.05 0 0 0 2.853 0l.064-.063z"/>
    </g>
</svg>
