<?xml version="1.0" encoding="UTF-8"?>
<svg width="30px" height="30px" viewBox="0 0 30 30" version="1.1" xmlns="http://www.w3.org/2000/svg" xmlns:xlink="http://www.w3.org/1999/xlink">
    <!-- Generator: sketchtool 52.6 (67491) - http://www.bohemiancoding.com/sketch -->
    <title>2B3A32DD-CB73-4447-B3A4-F197F69A9639</title>
    <desc>Created with sketchtool.</desc>
    <g id="symbols" stroke="none" stroke-width="1" fill="none" fill-rule="evenodd">
        <g id="ICON/社群/email">
            <circle id="Oval-2" fill="#FFA81A" cx="15" cy="15" r="14"></circle>
            <path d="M19,11.6445312 L19,22 C19,23.1045695 18.1045695,24 17,24 L10,24 C8.8954305,24 8,23.1045695 8,22 L8,11 C8,9.8954305 8.8954305,9 10,9 L16.2504883,9 L19,11.6445312 Z" id="Path" stroke="#FFFFFF" stroke-width="1.5"></path>
            <path d="M12,8.42915562 L12,8.14285714 C12,6.95938982 12.8954305,6 14,6 L20,6 C21.1045695,6 22,6.95938982 22,8.14285714 L22,18.8571429 C22,20.0406102 21.1045695,21 20,21" id="Path" stroke="#FFFFFF" stroke-width="1.5"></path>
            <path d="M19,11.6296296 L17,11.6296296 C16.4477153,11.6296296 16,11.1819144 16,10.6296296 L16,9" id="Path-22" stroke="#FFFFFF"></path>
            <path d="M10.5,14.5 L16.3220215,14.5" id="Line-10" stroke="#FFFFFF" stroke-width="1.5"></path>
            <path d="M10.5,17.5 L16.3220215,17.5" id="Line-10-Copy" stroke="#FFFFFF" stroke-width="1.5"></path>
            <path d="M10.5,20.5 L16.3220215,20.5" id="Line-10-Copy-2" stroke="#FFFFFF" stroke-width="1.5"></path>
        </g>
    </g>
</svg>