<svg xmlns="http://www.w3.org/2000/svg" xmlns:xlink="http://www.w3.org/1999/xlink" width="30" height="30" viewBox="0 0 30 30">
    <defs>
        <path id="a" d="M17.885 0v16.81H0V0z"/>
    </defs>
    <g fill="none" fill-rule="evenodd">
        <circle cx="15" cy="15" r="14" fill="#71BF4D"/>
        <g transform="translate(6 7)">
            <mask id="b" fill="#fff">
                <use xlink:href="#a"/>
            </mask>
            <path fill="#FFF" d="M14.433 6.83c.259 0 .469.207.469.462s-.21.462-.47.462h-1.307v.828h1.308c.258 0 .469.207.469.462 0 .256-.21.463-.47.463h-1.776a.466.466 0 0 1-.469-.463V5.54c0-.255.21-.463.469-.463h1.777c.259 0 .469.208.469.463s-.21.462-.47.462h-1.307v.828h1.308zm-2.875 2.214a.461.461 0 0 1-.47.463.473.473 0 0 1-.374-.185L8.892 6.876v2.168c0 .256-.21.463-.468.463a.467.467 0 0 1-.47-.463V5.54a.463.463 0 0 1 .47-.463c.146 0 .287.07.374.185l1.822 2.447V5.539c0-.255.21-.463.47-.463.257 0 .468.208.468.463v3.505zm-4.278 0c0 .256-.21.463-.469.463a.466.466 0 0 1-.468-.463V5.54c0-.255.21-.463.468-.463.259 0 .47.208.47.463v3.505zm-1.838.463H3.666a.466.466 0 0 1-.47-.463V5.54c0-.255.211-.463.47-.463s.468.208.468.463v3.043h1.308c.26 0 .47.207.47.462 0 .256-.21.463-.47.463zM17.886 7.16C17.886 3.21 13.874 0 8.943 0 4.013 0 0 3.211 0 7.159c0 3.538 3.182 6.502 7.48 7.062.29.062.687.19.787.436.09.223.06.572.03.797l-.128.755c-.04.223-.18.873.774.476.955-.397 5.15-2.992 7.026-5.122 1.296-1.402 1.917-2.825 1.917-4.404z" mask="url(#b)"/>
        </g>
    </g>
</svg>
