<?xml version="1.0" encoding="UTF-8"?>
<svg width="50px" height="50px" viewBox="0 0 50 50" version="1.1" xmlns="http://www.w3.org/2000/svg" xmlns:xlink="http://www.w3.org/1999/xlink">
    <!-- Generator: sketchtool 53.1 (72631) - https://sketchapp.com -->
    <title>A5FBAB80-D70B-43E3-AB58-C802F7A43F47</title>
    <desc>Created with sketchtool.</desc>
    <g id="symbols" stroke="none" stroke-width="1" fill="none" fill-rule="evenodd" stroke-linecap="round" stroke-linejoin="round">
        <g id="ICON/50/雙元貨幣" stroke="#00994E" stroke-width="1.774">
            <g id="Group-21" transform="translate(6.000000, 7.000000)">
                <path d="M30.6738708,7.87559153 C30.6738708,7.25133876 30.130205,6 28.6558891,6 C27.5487364,6 26.5510719,7.00862626 26.9238983,8.50173312 C27.4703956,10.6899232 25.6742221,14.3202223 25.0021907,14.9945286 C24.8964779,15.0993577 28.6360679,13.6468603 32,14.9945286" id="Stroke-1"></path>
                <path d="M25,10.5 L29,10.5" id="Stroke-3"></path>
                <path d="M13.5,36 C20.4029713,36 26,30.628424 26,23.9995576 C26,17.3724608 20.4029713,12 13.5,12 C6.59610706,12 1,17.3724608 1,23.9995576 C1,30.628424 6.59610706,36 13.5,36 Z" id="Stroke-5"></path>
                <path d="M28.544186,24 C34.4622802,23.1244902 39,18.1152221 39,12.0676207 C39,5.40253578 33.4893931,0 26.6909813,0 C21.2411798,0 16.6190584,3.47267739 15,8.28353229" id="Stroke-7"></path>
                <path d="M13.6428482,24 C11.6315459,24 10,23.1043802 10,22.000932 C10,20.8956198 11.6315459,20 13.6428482,20 C15.153083,20 16.4461886,20.5032619 17,21.2236719" id="Stroke-9"></path>
                <path d="M13.3580309,24 C15.3693332,24 17,24.8958285 17,25.9995339 C17,27.1051037 15.3693332,28 13.3580309,28 C11.846917,28 10.5546904,27.4966208 10,26.7769751" id="Stroke-11"></path>
                <path d="M13.5,18 L13.5,20" id="Stroke-13"></path>
                <path d="M13.5,28 L13.5,30" id="Stroke-15"></path>
                <polyline id="Stroke-17" points="11 7 0 7 3.78929144 4"></polyline>
                <polyline id="Stroke-19" points="28 29 39 29 35.2113176 32"></polyline>
            </g>
        </g>
    </g>
</svg>