<?xml version="1.0" encoding="UTF-8"?>
<svg width="50px" height="50px" viewBox="0 0 50 50" version="1.1" xmlns="http://www.w3.org/2000/svg" xmlns:xlink="http://www.w3.org/1999/xlink">
    <!-- Generator: sketchtool 53.1 (72631) - https://sketchapp.com -->
    <title>71280838-7BEC-4169-B4A4-80D34E1CA0B9</title>
    <desc>Created with sketchtool.</desc>
    <g id="symbols" stroke="none" stroke-width="1" fill="none" fill-rule="evenodd" stroke-linecap="round" stroke-linejoin="round">
        <g id="ICON/50/外匯好利" stroke="#00994E" stroke-width="1.774">
            <g id="Group-21" transform="translate(5.000000, 6.000000)">
                <path d="M34.8628121,4.66781505 C34.8628121,4.1118767 34.3973377,3 33.1337247,3 C32.185536,3 31.3299315,3.89652513 31.6491869,5.2237534 C32.1184924,7.16920631 30.5784042,10.3968293 30.0018289,10.9951754 C29.9124373,11.0879422 33.1164849,9.79782065 36,10.9951754" id="Stroke-1"></path>
                <path d="M30,7.5 L34,7.5" id="Stroke-3"></path>
                <path d="M11,38 C17.074904,38 22,33.0754009 22,26.9996799 C22,20.9245991 17.074904,16 11,16 C4.92509603,16 0,20.9245991 0,26.9996799 C0,33.0754009 4.92509603,38 11,38 Z" id="Stroke-5"></path>
                <path d="M11.6426093,27 C9.6315059,27 8,26.1046533 8,25.0011035 C8,23.8953467 9.6315059,23 11.6426093,23 C13.1533657,23 14.4462179,23.5032187 15,24.2242045" id="Stroke-7"></path>
                <path d="M11.3577518,27 C13.3686558,27 15,27.8960824 15,28.9988965 C15,30.1046533 13.3686558,31 11.3577518,31 C9.84714512,31 8.55442109,30.4967813 8,29.7757955" id="Stroke-9"></path>
                <path d="M11.5,21 L11.5,23" id="Stroke-11"></path>
                <path d="M11.5,31 L11.5,33" id="Stroke-13"></path>
                <path d="M33,16 C37.4182754,16 41,12.4187749 41,7.99967824 C41,3.58122511 37.4182754,0 33,0 C28.5817246,0 25,3.58122511 25,7.99967824 C25,12.4187749 28.5817246,16 33,16 Z" id="Stroke-15"></path>
                <path d="M9,13 C10.2686878,6.73324905 16.0543818,2 23,2" id="Stroke-17"></path>
                <path d="M37,18 C35.8899155,23.6582322 31.0703099,28.095725 25,29" id="Stroke-19"></path>
            </g>
        </g>
    </g>
</svg>