<svg xmlns="http://www.w3.org/2000/svg" width="50" height="50" viewBox="0 0 50 50">
    <g fill="#00994E" fill-rule="nonzero">
        <path d="M35.707 18.293l-2-2a1 1 0 0 0-1.414 0l-2 2A1 1 0 0 0 30 19v10a1 1 0 0 0 1 1h4a1 1 0 0 0 1-1V19a1 1 0 0 0-.293-.707zM34 28h-2v-8.957L33 18l1 1.043V28zM19.707 25.006l-2-1.75a1.104 1.104 0 0 0-1.414 0l-2 1.75a.824.824 0 0 0-.293.619v3.5c0 .483.448.875 1 .875h4c.552 0 1-.392 1-.875v-3.5a.823.823 0 0 0-.293-.619zM18 28h-2v-2.163L17 25l1 .837V28zM27.707 20.293l-2-2a1 1 0 0 0-1.414 0l-2 2A1 1 0 0 0 22 21v8a1 1 0 0 0 1 1h4a1 1 0 0 0 1-1v-8a1 1 0 0 0-.293-.707zM26 28h-2v-6.945L25 20l1 1.055V28z"/>
        <path d="M39.836 7H10.164A3.168 3.168 0 0 0 7 10.164v2.11c0 .582.472 1.054 1.055 1.054h1.054v18.07a3.168 3.168 0 0 0 3.164 3.165h11.672v2.29a3.169 3.169 0 0 0-2.11 2.983A3.168 3.168 0 0 0 25 43a3.168 3.168 0 0 0 3.164-3.164 3.169 3.169 0 0 0-2.11-2.983v-2.29h11.673a3.168 3.168 0 0 0 3.164-3.165v-18.07h1.054c.583 0 1.055-.472 1.055-1.055v-2.109A3.168 3.168 0 0 0 39.836 7zM25 40.89a1.056 1.056 0 0 1 0-2.109 1.056 1.056 0 0 1 0 2.11zm13.781-9.492c0 .582-.473 1.055-1.054 1.055H12.273a1.056 1.056 0 0 1-1.054-1.055v-18.07H38.78v18.07zm2.11-20.18H9.109v-1.054c0-.581.474-1.055 1.055-1.055h29.672c.581 0 1.055.474 1.055 1.055v1.055z"/>
    </g>
</svg>
