<svg xmlns="http://www.w3.org/2000/svg" width="50" height="50" viewBox="0 0 50 50">
    <g fill="#00994E" fill-rule="nonzero">
        <path d="M16.167 20h-3.334c-.46 0-.833.448-.833 1s.373 1 .833 1h3.334c.46 0 .833-.448.833-1s-.373-1-.833-1zM16.167 24h-3.334c-.46 0-.833.448-.833 1s.373 1 .833 1h3.334c.46 0 .833-.448.833-1s-.373-1-.833-1z"/>
        <path d="M38.781 17.653v-7.489A3.168 3.168 0 0 0 35.617 7c-1.584 0-2.9 1.17-3.129 2.692l-1.58 1.58c-2.647 2.647-6.364 4.166-10.197 4.166h-8.438A5.28 5.28 0 0 0 7 20.71v4.219a5.28 5.28 0 0 0 5.273 5.273h1.055v9.633A3.168 3.168 0 0 0 16.492 43a3.168 3.168 0 0 0 3.164-3.164v-5.414h1.055a3.168 3.168 0 0 0 3.164-3.164v-.708c2.662.59 5.126 1.91 7.034 3.819l1.58 1.58a3.169 3.169 0 0 0 3.128 2.692 3.168 3.168 0 0 0 3.164-3.164v-7.49A5.282 5.282 0 0 0 43 22.82a5.282 5.282 0 0 0-4.219-5.167zM17.547 39.836a1.056 1.056 0 0 1-2.11 0v-9.633h2.11v9.633zm-5.274-11.742A3.168 3.168 0 0 1 9.11 24.93v-4.22a3.168 3.168 0 0 1 3.164-3.163h7.383v10.547h-7.383zm9.493 3.164c0 .581-.474 1.055-1.055 1.055h-1.055v-2.11h1.055c.353 0 .705.013 1.055.039v1.016zm10.687 1.672l-.053-.053c-2.796-2.796-6.624-4.495-10.634-4.75V17.513c4.01-.255 7.838-1.954 10.634-4.75l.053-.053v20.22zm4.219 2.547a1.056 1.056 0 0 1-2.11 0V10.164a1.056 1.056 0 0 1 2.11 0v25.313zm2.11-9.673v-5.967a3.17 3.17 0 0 1 2.109 2.983 3.17 3.17 0 0 1-2.11 2.984z"/>
    </g>
</svg>
