<?xml version="1.0" encoding="UTF-8"?>
<svg width="50px" height="50px" viewBox="0 0 50 50" version="1.1" xmlns="http://www.w3.org/2000/svg" xmlns:xlink="http://www.w3.org/1999/xlink">
    <!-- Generator: sketchtool 53.1 (72631) - https://sketchapp.com -->
    <title>5042BDD6-C21C-4022-8D18-1E87C6E93F07</title>
    <desc>Created with sketchtool.</desc>
    <g id="symbols" stroke="none" stroke-width="1" fill="none" fill-rule="evenodd" stroke-linecap="round" stroke-linejoin="round">
        <g id="ICON/50/組合式商品" stroke="#00994E" stroke-width="1.774">
            <g id="Group-7" transform="translate(8.000000, 4.000000)">
                <path d="M17.5433924,5.38959252 C17.6992405,5.38959252 17.8487089,5.41751305 18,5.43705742 L18,0 L0,0 L0,18.381014 L5.36992405,18.381014 C5.31341772,18.6453284 5.27787342,18.9180189 5.27787342,19.2000162 C5.27787342,21.2987092 6.94481013,23 9,23 C11.0551899,23 12.7212152,21.2987092 12.7212152,19.2000162 C12.7212152,18.9180189 12.6865823,18.6453284 12.6300759,18.381014 L18,18.381014 L18,12.9430259 C17.8487089,12.9625703 17.6992405,12.9904908 17.5433924,12.9904908 C15.4882025,12.9904908 13.8221772,11.2892 13.8221772,9.19050702 C13.8221772,7.09088334 15.4882025,5.38959252 17.5433924,5.38959252 Z" id="Stroke-1"></path>
                <path d="M5.15526241,24.4566076 C5.15526241,24.2998481 5.181969,24.1512911 5.20066362,24 L0,24 L0,42 L17.5818395,42 L17.5818395,36.6300759 C17.8346619,36.6874937 18.0954963,36.7212152 18.3652329,36.7212152 C20.3726783,36.7212152 22,35.0551899 22,33 C22,30.9448101 20.3726783,29.2787848 18.3652329,29.2787848 C18.0954963,29.2787848 17.8346619,29.3125063 17.5818395,29.3699241 L17.5818395,24 L12.3802857,24 C12.3989803,24.1512911 12.4256869,24.2998481 12.4256869,24.4566076 C12.4256869,26.5127089 10.7983652,28.1787342 8.79091976,28.1787342 C6.78258407,28.1787342 5.15526241,26.5127089 5.15526241,24.4566076 Z" id="Stroke-3"></path>
                <path d="M17,18.3969727 L22.3252658,18.3969727 C22.3061266,18.2456815 22.2787848,17.7001519 22.2787848,17.5433924 C22.2787848,15.4872911 23.9448101,13.8212658 26,13.8212658 C28.0561013,13.8212658 29.7221266,15.4872911 29.7221266,17.5433924 C29.7221266,17.7001519 29.6947848,18.2456815 29.6756456,18.3969727 L35,18.3969727 L35,0 L17,0" id="Stroke-5"></path>
            </g>
        </g>
    </g>
</svg>