<svg xmlns="http://www.w3.org/2000/svg" width="50" height="50" viewBox="0 0 50 50">
    <g fill="#00994E" fill-rule="nonzero">
        <path d="M38.727 16.775h-.001a4.385 4.385 0 0 1 0-6.175c.586-.588.17-1.6-.66-1.6h-22.4a4.653 4.653 0 0 0-3.555 1.652A4.703 4.703 0 0 0 11 13.657l-.001.03v22.625C11 38.897 13.093 41 15.667 41h22.399c.515 0 .933-.42.933-.938V17.438v-.015a.945.945 0 0 0-.272-.648zm-25.195-4.908a2.793 2.793 0 0 1 2.134-.992h20.586a6.248 6.248 0 0 0-.592 1.875H15.667a.935.935 0 0 0-.934.938c0 .517.418.937.934.937h8.4V16.5h-8.2c-1.473 0-2.746-1.003-2.961-2.333-.042-.255-.04-.473-.04-.48 0-.67.229-1.304.666-1.82zm22.72 4.633H33.4v-1.875h2.26a6.25 6.25 0 0 0 .593 1.875zm-4.72-1.875v10.67L29.15 24.1a.929.929 0 0 0-.835 0l-2.382 1.197V14.625h5.6zM16.6 39.125h-.934a2.81 2.81 0 0 1-2.8-2.812V17.38a5.013 5.013 0 0 0 3 .995h.734v20.75zm20.533 0H18.466v-20.75h5.6v8.438c0 .324.168.626.443.797a.93.93 0 0 0 .908.041l3.316-1.665 3.316 1.665a.929.929 0 0 0 .908-.041.938.938 0 0 0 .442-.797v-8.438h3.734v20.75z"/>
        <path d="M34.125 30h-12.25c-.483 0-.875.448-.875 1s.392 1 .875 1h12.25c.483 0 .875-.448.875-1s-.392-1-.875-1zM34 35H24a1 1 0 0 0 0 2h10a1 1 0 0 0 0-2z"/>
    </g>
</svg>
