<svg xmlns="http://www.w3.org/2000/svg" width="50" height="50" viewBox="0 0 50 50">
    <g fill="#00994E" fill-rule="nonzero" transform="translate(7 7)">
        <path d="M36 13.781v-2.11-.017a1.05 1.05 0 0 0-.48-.866l-.015-.01L18.56.161a1.055 1.055 0 0 0-1.12 0L.495 10.778l-.015.01a1.05 1.05 0 0 0-.48.866V13.782a3.168 3.168 0 0 0 2.86 3.148 28.022 28.022 0 0 0 0 12.757A3.168 3.168 0 0 0 0 32.836v2.11C0 35.527.472 36 1.055 36h33.89c.583 0 1.055-.472 1.055-1.055v-2.11a3.168 3.168 0 0 0-2.86-3.148c.98-4.198.98-8.558 0-12.757A3.168 3.168 0 0 0 36 13.781zM18 2.3l13.276 8.318H4.724L18 2.3zm15.89 30.537v1.055H2.11v-1.055c0-.582.473-1.055 1.054-1.055h29.672c.581 0 1.055.473 1.055 1.055zM5.029 16.946h.491a25.918 25.918 0 0 1 0 12.726h-.491a25.918 25.918 0 0 1 0-12.727zm2.662-.015h3.675a28.022 28.022 0 0 0 0 12.727H7.69a28.022 28.022 0 0 0 0-12.727zm5.845.014h.492a25.918 25.918 0 0 1 0 12.727h-.492a25.918 25.918 0 0 1 0-12.727zm2.663-.014h3.604a28.083 28.083 0 0 0 0 12.74h-3.604a28.083 28.083 0 0 0 0-12.74zm5.775.014h.492a25.918 25.918 0 0 1 0 12.727h-.492a25.918 25.918 0 0 1 0-12.727zm2.662-.014h3.675a28.083 28.083 0 0 0 0 12.74h-3.675a28.083 28.083 0 0 0 0-12.74zm5.846.014h.491a25.918 25.918 0 0 1 0 12.727h-.491a25.918 25.918 0 0 1 0-12.727zm3.41-3.164c0 .582-.474 1.055-1.055 1.055H3.164A1.056 1.056 0 0 1 2.11 13.78v-1.054h31.782v1.054z"/>
        <circle cx="18" cy="7" r="1"/>
    </g>
</svg>
