<?xml version="1.0" encoding="UTF-8"?>
<svg width="50px" height="50px" viewBox="0 0 50 50" version="1.1" xmlns="http://www.w3.org/2000/svg" xmlns:xlink="http://www.w3.org/1999/xlink">
    <!-- Generator: sketchtool 52.6 (67491) - http://www.bohemiancoding.com/sketch -->
    <title>16B78E0E-DB9D-4DF3-A9A5-38D8FC4F6D05</title>
    <desc>Created with sketchtool.</desc>
    <g id="symbols" stroke="none" stroke-width="1" fill="none" fill-rule="evenodd" stroke-linecap="round" stroke-linejoin="round">
        <g id="ICON/50/智能投資" stroke="#00994E" stroke-width="2">
            <g id="Group-19" transform="translate(5.000000, 5.000000)">
                <path d="M20,36.3634286 C29.0371429,36.3634286 36.3638095,29.0377143 36.3638095,19.999619 C36.3638095,10.9624762 29.0371429,3.6367619 20,3.6367619 C10.9628571,3.6367619 3.63619048,10.9624762 3.63619048,19.999619 C3.63619048,29.0377143 10.9628571,36.3634286 20,36.3634286 Z" id="Stroke-1"></path>
                <path d="M20,0 L20,7.27333333" id="Stroke-3"></path>
                <path d="M0,20 L7.27238095,20" id="Stroke-5"></path>
                <path d="M32.7269524,20 L40.0002857,20" id="Stroke-7"></path>
                <path d="M20,32.7269524 L20,40.0002857" id="Stroke-9"></path>
                <path d="M20.2561905,20.1339048 C17.4961905,20.1339048 15.2571429,18.9748571 15.2571429,17.5462857 C15.2571429,16.1148571 17.4961905,14.9558095 20.2561905,14.9558095 C22.3295238,14.9558095 24.1038095,15.6072381 24.8638095,16.5405714" id="Stroke-11"></path>
                <path d="M20.2561905,20.1339048 C23.0161905,20.1339048 25.2552381,21.2939048 25.2552381,22.7215238 C25.2552381,24.1529524 23.0161905,25.312 20.2561905,25.312 C18.1828571,25.312 16.4085714,24.6605714 15.647619,23.7272381" id="Stroke-13"></path>
                <path d="M20.2561905,12.4302857 L20.2561905,14.956" id="Stroke-15"></path>
                <path d="M20.2561905,25.3115238 L20.2561905,27.8372381" id="Stroke-17"></path>
            </g>
        </g>
    </g>
</svg>