<svg xmlns="http://www.w3.org/2000/svg" width="50" height="50" viewBox="0 0 50 50">
    <g fill="#00994E" fill-rule="nonzero">
        <path d="M41.945 26.055H33.44a13.737 13.737 0 0 0 1.052-5.274C34.492 13.182 28.342 7 20.782 7 13.2 7 7 13.203 7 20.781c0 5.537 3.39 10.533 8.508 12.66v8.504c0 .583.472 1.055 1.055 1.055h25.382c.583 0 1.055-.472 1.055-1.055V27.11c0-.582-.472-1.054-1.055-1.054zM31.13 15.508a11.634 11.634 0 0 1 1.206 4.219h-4.192a24.642 24.642 0 0 0-.523-4.22h3.51zm1.205 6.314a11.662 11.662 0 0 1-1.218 4.233h-3.501c.29-1.337.469-2.778.527-4.233h4.192zm-2.574-8.424h-2.713a16.12 16.12 0 0 0-.846-2.07c-.213-.43-.44-.829-.677-1.198a11.675 11.675 0 0 1 4.236 3.268zm-7.924-4.022c.894.448 1.76 1.448 2.475 2.89.178.359.344.737.496 1.132h-2.971V9.376zm0 6.132h3.622c.316 1.311.511 2.736.574 4.219h-4.196v-4.22zm0 6.314h4.195a22.252 22.252 0 0 1-.58 4.233h-3.615v-4.233zm-4.585-9.556c.716-1.442 1.582-2.442 2.476-2.89v4.022h-2.972c.153-.395.318-.773.496-1.132zm3.397 15.884a4.253 4.253 0 0 1-3.03 3.045V28.15h3.03zm-4.599-18.037c-.241.374-.47.779-.687 1.215a16.129 16.129 0 0 0-.846 2.07h-2.768a11.737 11.737 0 0 1 4.301-3.285zm-5.679 5.38h3.573a24.808 24.808 0 0 0-.524 4.234H9.158a11.654 11.654 0 0 1 1.212-4.233zm.027 10.562a11.483 11.483 0 0 1-1.238-4.22h4.26c.06 1.461.242 2.886.532 4.22h-3.554zm5.11 5.065a11.741 11.741 0 0 1-3.71-2.956h2.73c.28.836.608 1.615.98 2.319v.637zm.597-15.612h3.623v4.219H15.53c.062-1.483.258-2.908.573-4.22zm.008 10.547a22.108 22.108 0 0 1-.58-4.22h4.195v4.22h-3.615zm1.505 14.836v-3.03a4.235 4.235 0 0 1 3.03 3.03h-3.03zm23.274 0h-3.03a4.235 4.235 0 0 1 3.03-3.03v3.03zm0-5.185a6.344 6.344 0 0 0-5.185 5.185H22.802a6.344 6.344 0 0 0-5.185-5.185v-2.357a6.344 6.344 0 0 0 5.185-5.185h12.904a6.344 6.344 0 0 0 5.185 5.185v2.357zm0-4.511a4.235 4.235 0 0 1-3.03-3.03h3.03v3.03z"/>
        <path d="M29 31c-2.206 0-4 1.78-4 3.967C25 37.15 26.778 39 29 39c2.224 0 4-1.852 4-4.033C33 32.78 31.206 31 29 31zm0 6.017c-1.084 0-2-.939-2-2.05 0-1.094.897-1.984 2-1.984s2 .89 2 1.984c0 1.111-.916 2.05-2 2.05z"/>
    </g>
</svg>
