<?xml version="1.0" encoding="UTF-8"?>
<svg width="50px" height="50px" viewBox="0 0 50 50" version="1.1" xmlns="http://www.w3.org/2000/svg" xmlns:xlink="http://www.w3.org/1999/xlink">
    <!-- Generator: sketchtool 52.6 (67491) - http://www.bohemiancoding.com/sketch -->
    <title>448556EA-5AD3-46C4-9EDC-C3A03015702A</title>
    <desc>Created with sketchtool.</desc>
    <g id="symbols" stroke="none" stroke-width="1" fill="none" fill-rule="evenodd" stroke-linecap="round" stroke-linejoin="round">
        <g id="ICON/50/試算" stroke="#00994E" stroke-width="2">
            <g id="Group-13" transform="translate(10.000000, 4.000000)">
                <path d="M3,43 L28,43 C29.6568542,43 31,41.6568542 31,40 L31,3 C31,1.34314575 29.6568542,-3.04359188e-16 28,0 L3,0 C1.34314575,3.04359188e-16 -2.02906125e-16,1.34314575 0,3 L0,40 C2.02906125e-16,41.6568542 1.34314575,43 3,43 Z" id="Stroke-1"></path>
                <path d="M5,14 L26,14 C26.5522847,14 27,13.5522847 27,13 L27,8 C27,7.44771525 26.5522847,7 26,7 L5,7 C4.44771525,7 4,7.44771525 4,8 L4,13 C4,13.5522847 4.44771525,14 5,14 Z" id="Stroke-3"></path>
                <path d="M6,22 L9,22" id="Stroke-4"></path>
                <path d="M13,22 L16,22" id="Stroke-5"></path>
                <path d="M20,22 L26,22" id="Stroke-6"></path>
                <path d="M6,29 L9,29" id="Stroke-7"></path>
                <path d="M13,29 L16,29" id="Stroke-8"></path>
                <path d="M20,29 L26,29" id="Stroke-9"></path>
                <path d="M6,35 L9,35" id="Stroke-10"></path>
                <path d="M13,35 L16,35" id="Stroke-11"></path>
                <path d="M20,35 L26,35" id="Stroke-12"></path>
            </g>
        </g>
    </g>
</svg>