<svg xmlns="http://www.w3.org/2000/svg" width="50" height="50" viewBox="0 0 50 50">
    <g fill="none" fill-rule="evenodd" stroke="#00994E" stroke-width="2" transform="translate(5 5)">
        <path stroke-linecap="round" stroke-linejoin="round" d="M20 0v2"/>
        <circle cx="20" cy="5" r="3" stroke-linecap="round" stroke-linejoin="round"/>
        <path stroke-linecap="round" stroke-linejoin="round" d="M5 5c3.612 2.087 7.407 2.087 11.386 0"/>
        <g stroke-linecap="round" stroke-linejoin="round">
            <path d="M35 5c-3.612 2.087-7.407 2.087-11.386 0M35 5l-5 15h10zM40 20c0 3.038-2.239 5.5-5 5.5s-5-2.462-5-5.5"/>
        </g>
        <path stroke-linecap="round" stroke-linejoin="round" d="M5 5l5 15H0zM0 20c0 3.038 2.239 5.5 5 5.5s5-2.462 5-5.5M19.126 8L16 29M21 8l3.126 21"/>
        <path d="M13 35h14v-2a3 3 0 0 0-3-3h-8a3 3 0 0 0-3 3v2zM8 40h25v-2a3 3 0 0 0-3-3H11a3 3 0 0 0-3 3v2z"/>
    </g>
</svg>
