<svg xmlns="http://www.w3.org/2000/svg" width="50" height="50" viewBox="0 0 50 50">
    <g fill="none" fill-rule="evenodd" stroke="#00994E" stroke-linecap="round" stroke-linejoin="round" stroke-width="2" transform="translate(3 4)">
        <path d="M19 2.368L21.766 6l3.68-1.554L26 0"/>
        <path d="M35.535 33.132C41.17 30.156 45 24.325 45 17.617 45 7.887 36.941 0 27 0S9 7.888 9 17.617c0 .73.045 1.45.134 2.157"/>
        <rect width="32" height="20" y="23" rx="1"/>
        <rect width="16" height="13" x="11" y="26" rx="1"/>
        <path d="M15 30.5h4M15 34.5h4M8 32.006C7.925 30.67 7.027 30 5.307 30c-1.364 0-2.046.607-2.046 1.82 0 1.16.682 1.74 2.046 1.74 2.046 0 2.693.455 2.693 1.76C8 36.626 6.37 37 5.203 37 4.035 37 3 36.14 3 34.85M5.5 29.016v1.116m0 6.762v1.065M39.594 5c-6.35 1.718-9.678 2.555-9.983 2.513-.305-.043-1.33-.18-3.075-.412-1.223.367-1.835.753-1.835 1.157 0 .606 2.194 1.475.593 2.958s-1.423 1.42-1.008 2.171c.415.752.86 4.369 4.787 3.453 3.927-.916 5.597-2.837 7.187-1.072 1.591 1.766.534 5.377 7.74 3.875M15.568 4c-.68 2.19-.68 3.712 0 4.568 1.02 1.284 2.635 3.904 0 4.755C12.934 14.173 9.694 15.148 9 17"/>
    </g>
</svg>
